<svg xmlns="http://www.w3.org/2000/svg" viewBox="0 0 177.69 44.99"><defs><style>.cls-1{fill:#563d7c;}.cls-2{isolation:isolate;}.cls-3{fill:#fff;}</style></defs><g id="Capa_2" data-name="Capa 2"><g id="Layer_1" data-name="Layer 1"><g id="solid"><path id="bg" class="cls-1" d="M45,37.49a7.53,7.53,0,0,1-7.5,7.5H7.5A7.52,7.52,0,0,1,0,37.49V7.5A7.52,7.52,0,0,1,7.5,0h30A7.52,7.52,0,0,1,45,7.5Z"/><g id="B" class="cls-2"><path class="cls-3" d="M12.22,9.78H25a9.12,9.12,0,0,1,5.66,1.61,5.75,5.75,0,0,1,2.13,4.89,5.82,5.82,0,0,1-1,3.4A6.22,6.22,0,0,1,29,21.87v.07a5.75,5.75,0,0,1,3.68,2.3A7.61,7.61,0,0,1,34,28.71a7.61,7.61,0,0,1-.55,2.88,5.8,5.8,0,0,1-1.73,2.31,8.76,8.76,0,0,1-3,1.55,14.8,14.8,0,0,1-4.37.57H12.22V9.78Zm4.6,11h7.5a4.06,4.06,0,0,0,2.75-.94,3.37,3.37,0,0,0,1.11-2.71,3.38,3.38,0,0,0-1-2.79,4.41,4.41,0,0,0-2.86-.81h-7.5v7.25Zm0,11.5h8.12a4.51,4.51,0,0,0,3.25-1.09,4,4,0,0,0,1.16-3.07,3.83,3.83,0,0,0-1.16-3,4.67,4.67,0,0,0-3.25-1H16.82Z"/></g></g><path class="cls-1" d="M54.82,32.42V11.32h7.91a9.71,9.71,0,0,1,3.88.64,4.9,4.9,0,0,1,2.29,2,5.15,5.15,0,0,1,.83,2.79A4.74,4.74,0,0,1,69,19.26a5.23,5.23,0,0,1-2.22,1.93,5.52,5.52,0,0,1,2.94,1.92,5.1,5.1,0,0,1,1,3.19,6.14,6.14,0,0,1-.62,2.76,5.42,5.42,0,0,1-1.55,2,6.31,6.31,0,0,1-2.31,1,13.86,13.86,0,0,1-3.41.35Zm2.79-12.23h4.56a10.33,10.33,0,0,0,2.67-.25,2.94,2.94,0,0,0,1.6-1.05A3,3,0,0,0,67,17.05a3.44,3.44,0,0,0-.5-1.85A2.57,2.57,0,0,0,65,14.1a12.44,12.44,0,0,0-3.21-.29H57.61Zm0,9.74h5.25a11.67,11.67,0,0,0,1.9-.1,4.6,4.6,0,0,0,1.62-.57,3.06,3.06,0,0,0,1.06-1.18,3.63,3.63,0,0,0,.42-1.78,3.54,3.54,0,0,0-.6-2.05A3.21,3.21,0,0,0,65.58,23a10.31,10.31,0,0,0-3.09-.35H57.61Z"/><path class="cls-1" d="M73.3,24.78q0-4.25,2.36-6.29a7.09,7.09,0,0,1,4.81-1.7,6.89,6.89,0,0,1,5.16,2.06,7.88,7.88,0,0,1,2,5.71,10.14,10.14,0,0,1-.89,4.65,6.3,6.3,0,0,1-2.57,2.62,7.46,7.46,0,0,1-3.7.94,6.88,6.88,0,0,1-5.19-2.06A8.22,8.22,0,0,1,73.3,24.78Zm2.67,0a6.49,6.49,0,0,0,1.28,4.4,4.11,4.11,0,0,0,3.22,1.46,4.07,4.07,0,0,0,3.21-1.47A6.64,6.64,0,0,0,85,24.69a6.33,6.33,0,0,0-1.29-4.3,4.27,4.27,0,0,0-6.43,0A6.45,6.45,0,0,0,76,24.78Z"/><path class="cls-1" d="M89.7,24.78q0-4.25,2.36-6.29a7.09,7.09,0,0,1,4.81-1.7A6.89,6.89,0,0,1,102,18.85a7.88,7.88,0,0,1,2,5.71,10.14,10.14,0,0,1-.89,4.65,6.3,6.3,0,0,1-2.57,2.62,7.46,7.46,0,0,1-3.7.94,6.88,6.88,0,0,1-5.19-2.06A8.22,8.22,0,0,1,89.7,24.78Zm2.67,0a6.49,6.49,0,0,0,1.28,4.4,4.11,4.11,0,0,0,3.22,1.46,4.07,4.07,0,0,0,3.21-1.47,6.64,6.64,0,0,0,1.29-4.48,6.33,6.33,0,0,0-1.29-4.3,4.27,4.27,0,0,0-6.43,0A6.45,6.45,0,0,0,92.37,24.78Z"/><path class="cls-1" d="M112.73,30.11l.37,2.28a9.23,9.23,0,0,1-2,.24,4.42,4.42,0,0,1-2.19-.45A2.5,2.5,0,0,1,107.86,31a9.33,9.33,0,0,1-.32-3.06v-8.8h-1.9v-2h1.9V13.35l2.58-1.56v5.34h2.61v2h-2.61v8.94a4.29,4.29,0,0,0,.14,1.43,1.12,1.12,0,0,0,.44.5,1.78,1.78,0,0,0,.89.19A9.78,9.78,0,0,0,112.73,30.11Z"/><path class="cls-1" d="M114.22,27.86l2.57-.4a3.57,3.57,0,0,0,1.2,2.36,4.23,4.23,0,0,0,2.76.82,4,4,0,0,0,2.64-.73,2.16,2.16,0,0,0,.87-1.71,1.6,1.6,0,0,0-.76-1.38,11.6,11.6,0,0,0-2.65-.88,24.73,24.73,0,0,1-4-1.24,3.86,3.86,0,0,1-1.67-1.46,3.81,3.81,0,0,1-.57-2,4,4,0,0,1,.47-1.89,4.24,4.24,0,0,1,1.28-1.45,5.3,5.3,0,0,1,1.65-.75,7.66,7.66,0,0,1,2.23-.31,8.72,8.72,0,0,1,3.16.52,4.24,4.24,0,0,1,2,1.4,5.47,5.47,0,0,1,.9,2.37l-2.54.34a2.76,2.76,0,0,0-1-1.84,3.66,3.66,0,0,0-2.34-.66,4.2,4.2,0,0,0-2.55.59,1.7,1.7,0,0,0-.76,1.38,1.44,1.44,0,0,0,.32.91,2.24,2.24,0,0,0,1,.69c.26.09,1,.32,2.29.66a33.09,33.09,0,0,1,3.84,1.2,4,4,0,0,1,1.7,1.36,3.77,3.77,0,0,1,.62,2.22,4.35,4.35,0,0,1-.75,2.44A4.8,4.8,0,0,1,124,32.14a7.87,7.87,0,0,1-3.22.63,7.14,7.14,0,0,1-4.54-1.24A5.77,5.77,0,0,1,114.22,27.86Z"/><path class="cls-1" d="M135.66,30.11l.38,2.28a9.31,9.31,0,0,1-2,.24,4.42,4.42,0,0,1-2.19-.45A2.5,2.5,0,0,1,130.8,31a9.05,9.05,0,0,1-.32-3.06v-8.8h-1.9v-2h1.9V13.35l2.58-1.56v5.34h2.6v2h-2.6v8.94a4.7,4.7,0,0,0,.13,1.43,1.08,1.08,0,0,0,.45.5,1.77,1.77,0,0,0,.88.19A9.78,9.78,0,0,0,135.66,30.11Z"/><path class="cls-1" d="M138.17,32.42V17.13h2.33v2.32a6.15,6.15,0,0,1,1.65-2.14,2.84,2.84,0,0,1,1.66-.52,5.16,5.16,0,0,1,2.67.83l-.9,2.41a3.62,3.62,0,0,0-1.9-.56,2.46,2.46,0,0,0-1.52.51,2.71,2.71,0,0,0-1,1.41,10.09,10.09,0,0,0-.43,3v8Z"/><path class="cls-1" d="M158,30.54a9.85,9.85,0,0,1-2.77,1.73,8.15,8.15,0,0,1-2.86.5,5.55,5.55,0,0,1-3.87-1.23,4.07,4.07,0,0,1-1.35-3.15A4.25,4.25,0,0,1,149,24.85a6.32,6.32,0,0,1,1.86-.85,20.58,20.58,0,0,1,2.31-.39,24.23,24.23,0,0,0,4.62-.89c0-.36,0-.58,0-.68a2.86,2.86,0,0,0-.73-2.23,4.37,4.37,0,0,0-2.95-.88,4.63,4.63,0,0,0-2.7.64,4,4,0,0,0-1.29,2.27l-2.54-.34a6.19,6.19,0,0,1,1.14-2.63A5,5,0,0,1,151,17.33a10.24,10.24,0,0,1,3.47-.54,9.07,9.07,0,0,1,3.18.46,4.13,4.13,0,0,1,1.8,1.16,4,4,0,0,1,.81,1.76,15.36,15.36,0,0,1,.13,2.39V26a37.2,37.2,0,0,0,.16,4.57,5.59,5.59,0,0,0,.66,1.83h-2.71A5.46,5.46,0,0,1,158,30.54Zm-.21-5.79a19.25,19.25,0,0,1-4.24,1,9.36,9.36,0,0,0-2.26.52,2.24,2.24,0,0,0-1,.84,2.29,2.29,0,0,0,.43,3,3.37,3.37,0,0,0,2.29.69,5.34,5.34,0,0,0,2.67-.66,4,4,0,0,0,1.71-1.79,6.21,6.21,0,0,0,.42-2.59Z"/><path class="cls-1" d="M164.42,38.28V17.13h2.36v2a5.73,5.73,0,0,1,1.88-1.75,5.17,5.17,0,0,1,2.55-.58,6.06,6.06,0,0,1,3.46,1,6.21,6.21,0,0,1,2.26,2.85,10.32,10.32,0,0,1,.76,4,10.24,10.24,0,0,1-.84,4.23,6.38,6.38,0,0,1-2.45,2.88,6.27,6.27,0,0,1-3.38,1,4.79,4.79,0,0,1-2.32-.55A5.13,5.13,0,0,1,167,30.84v7.44Zm2.34-13.42a6.65,6.65,0,0,0,1.2,4.37,3.65,3.65,0,0,0,2.89,1.41,3.76,3.76,0,0,0,3-1.46A7,7,0,0,0,175,24.65a6.77,6.77,0,0,0-1.2-4.38A3.61,3.61,0,0,0,171,18.82,3.72,3.72,0,0,0,168,20.36,7,7,0,0,0,166.76,24.86Z"/></g></g></svg>