<svg xmlns="http://www.w3.org/2000/svg" viewBox="0 0 135.62 30"><defs><style>.cls-1{fill:#ff6c2c;}</style></defs><g id="Capa_2" data-name="Capa 2"><g id="Layer_1" data-name="Layer 1"><path class="cls-1" d="M11.21,7.39h8.48l-1.32,5a3.15,3.15,0,0,1-1.12,1.69,3,3,0,0,1-1.91.64H11.4A3.77,3.77,0,0,0,9,15.53a4.11,4.11,0,0,0-1.45,2.13,4.07,4.07,0,0,0,.68,3.51A3.88,3.88,0,0,0,9.6,22.28a4,4,0,0,0,1.8.41h2.4a1.36,1.36,0,0,1,1.11.54,1.33,1.33,0,0,1,.24,1.22L13.65,30H11a10.52,10.52,0,0,1-5-1.18,11.18,11.18,0,0,1-3.77-3.13A11.06,11.06,0,0,1,.37,16.12l.15-.56A11.12,11.12,0,0,1,2,12.24,10.91,10.91,0,0,1,4.48,9.66,11.08,11.08,0,0,1,7.61,8,10.88,10.88,0,0,1,11.21,7.39ZM15.49,30,22.87,2.32A3.18,3.18,0,0,1,24,.64,3,3,0,0,1,25.91,0h7.84a10.59,10.59,0,0,1,5,1.18,11.12,11.12,0,0,1,5.83,7.58,10.56,10.56,0,0,1-.15,5.11l-.15.57a11.59,11.59,0,0,1-1.5,3.32,11,11,0,0,1-9.15,4.89H26.81l1.35-5.06a3.14,3.14,0,0,1,1.13-1.65,3,3,0,0,1,1.91-.64h2.17a3.8,3.8,0,0,0,2.42-.83,3.84,3.84,0,0,0,1.41-2.13,3.71,3.71,0,0,0,0-1.84,4,4,0,0,0-.73-1.59,3.93,3.93,0,0,0-1.35-1.13,3.8,3.8,0,0,0-1.8-.43h-4.2L23.7,27.71a3.14,3.14,0,0,1-1.13,1.65A2.94,2.94,0,0,1,20.7,30ZM62.25,15.22l.11-.41a.54.54,0,0,0-.09-.5.58.58,0,0,0-.47-.21H49.61a2.92,2.92,0,0,1-1.42-.34,3.1,3.1,0,0,1-1.62-2.14,3.29,3.29,0,0,1,0-1.46l.75-2.85h16.5A5.9,5.9,0,0,1,66.67,8a6.51,6.51,0,0,1,2.12,1.76A6.34,6.34,0,0,1,70,12.24a6.11,6.11,0,0,1,0,2.91l-3,11A5.08,5.08,0,0,1,62,30l-12.19,0a6.5,6.5,0,0,1-5.18-2.54,6.91,6.91,0,0,1-1.2-2.62,6.19,6.19,0,0,1,.08-3l.15-.56a5.92,5.92,0,0,1,.88-2A6.83,6.83,0,0,1,46,17.7a6.53,6.53,0,0,1,1.84-1A6.37,6.37,0,0,1,50,16.35H60.19l-.75,2.81a3.14,3.14,0,0,1-1.13,1.65,2.94,2.94,0,0,1-1.87.64H51.86a.79.79,0,0,0-.82.64.74.74,0,0,0,.15.73.83.83,0,0,0,.67.32h7.39a1.16,1.16,0,0,0,.71-.23,1,1,0,0,0,.38-.6l.07-.3ZM84.07,7.39a10.64,10.64,0,0,1,5,1.18,11.28,11.28,0,0,1,3.77,3.13,11,11,0,0,1,2,4.46,10.69,10.69,0,0,1-.17,5.14l-1.87,7.05a2.1,2.1,0,0,1-.81,1.2,2.27,2.27,0,0,1-1.37.45h-4a1.38,1.38,0,0,1-1.35-1.76l2.25-8.51a3.6,3.6,0,0,0,.06-1.84,4.25,4.25,0,0,0-.73-1.6,4,4,0,0,0-1.35-1.12,3.8,3.8,0,0,0-1.8-.43H79.5L75.86,28.35a2,2,0,0,1-.81,1.2,2.32,2.32,0,0,1-1.4.45h-4a1.36,1.36,0,0,1-1.11-.54,1.29,1.29,0,0,1-.24-1.22L73.84,7.39Zm22.09,7.14a2,2,0,0,0-.64.92l-1.68,6.37a1.12,1.12,0,0,0,1.08,1.43h15.53l-1.2,4.46a3.14,3.14,0,0,1-1.13,1.65,2.94,2.94,0,0,1-1.87.64H102.11a6.16,6.16,0,0,1-4.93-2.42A6.42,6.42,0,0,1,96,25.07a5.71,5.71,0,0,1,.09-2.87l2.29-8.51a8.45,8.45,0,0,1,5.42-5.83,8,8,0,0,1,2.75-.47h10a5.92,5.92,0,0,1,2.81.67,6.62,6.62,0,0,1,2.12,1.76,6.17,6.17,0,0,1,1.14,2.52,6.43,6.43,0,0,1-.07,2.89l-.68,2.54a4.86,4.86,0,0,1-1.82,2.72,5,5,0,0,1-3.09,1H105.67l.75-2.78a3,3,0,0,1,1.09-1.65,3.08,3.08,0,0,1,1.91-.64H114a.79.79,0,0,0,.82-.64l.15-.56a.79.79,0,0,0-.15-.75.82.82,0,0,0-.67-.33h-7A1.57,1.57,0,0,0,106.16,14.53ZM120.41,30,128,1.69a2.11,2.11,0,0,1,.8-1.22A2.3,2.3,0,0,1,130.16,0h4a1.4,1.4,0,0,1,1.15.54,1.34,1.34,0,0,1,.24,1.22l-5.63,20.89a9,9,0,0,1-1.33,3A9.75,9.75,0,0,1,126.43,28a10.61,10.61,0,0,1-2.8,1.5A9.63,9.63,0,0,1,120.41,30Z"/></g></g></svg>