<svg xmlns="http://www.w3.org/2000/svg" viewBox="0 0 155.8 20.97"><defs><style>.cls-1{fill:#3a589e;}.cls-2{fill:#828282;}</style></defs><g id="Capa_2" data-name="Capa 2"><g id="Layer_1" data-name="Layer 1"><path class="cls-1" d="M10.22.41A14.94,14.94,0,0,0,7,0C3.54,0,2.17,1.64,2.17,4.57V6.7H0v3.46H2.17V20.68H6.38V10.16H9.46L9.75,6.7H6.38V5c0-.94.09-1.53,1.44-1.53a10.71,10.71,0,0,1,1.87.21L10.22.41ZM22.93,20.68V11.57c0-3.95-1.08-5.45-6-5.45a20.12,20.12,0,0,0-5.13.7L12.33,10a20.34,20.34,0,0,1,3.87-.42c2.25,0,2.52.51,2.52,2v1.08H15.64c-2.93,0-4.25,1.15-4.25,4,0,2.43,1.09,4.33,3.73,4.33a8.66,8.66,0,0,0,4.06-1.2l.3.91Zm-4.21-3.49a4.74,4.74,0,0,1-2.15.5c-.81,0-1.13-.32-1.13-1.12s.35-1,1.26-1h2Zm11.07-5.33c0-1.46.61-2.13,2.31-2.13a14.44,14.44,0,0,1,2.93.35l.53-3.52a15.44,15.44,0,0,0-3.46-.44c-4.63,0-6.53,1.73-6.53,5.8v3.25c0,4.07,1.9,5.8,6.53,5.8a14.87,14.87,0,0,0,3.46-.44L35,17a12.37,12.37,0,0,1-2.93.35c-1.7,0-2.31-.67-2.31-2.14ZM49.36,15V12c0-3.11-1-5.92-5.78-5.92s-6.12,2.64-6.12,5.72v3.33c0,3.51,1.76,5.8,6.39,5.8a16.84,16.84,0,0,0,5.35-.91l-.61-3.16a16.7,16.7,0,0,1-4.33.61c-1.94,0-2.58-.44-2.58-2.07V15Zm-4-3.17H41.68v-.61c0-1,.47-1.82,1.93-1.82s1.76.82,1.76,1.82ZM65.08,15V11.27c0-3.19-1.23-5.15-4.39-5.15a11.22,11.22,0,0,0-4,.79V0L52.43.59V20.5a39.61,39.61,0,0,0,5.79.47C64.12,21,65.08,18.36,65.08,15Zm-8.44-4.38a6.17,6.17,0,0,1,2.7-.8,1.34,1.34,0,0,1,1.52,1.53V15c0,1.34-.37,2.31-2.48,2.31a17.15,17.15,0,0,1-1.74-.06ZM73.87,21c5.07,0,6.44-2.84,6.44-5.77V11.89c0-2.93-1.37-5.77-6.44-5.77S67.42,9,67.42,11.89V15.2C67.42,18.13,68.8,21,73.87,21Zm0-3.55c-1.52,0-2.23-.76-2.23-2.1V11.77c0-1.35.71-2.11,2.23-2.11s2.22.76,2.22,2.11v3.55c0,1.34-.7,2.1-2.22,2.1ZM89.1,21c5.06,0,6.44-2.84,6.44-5.77V11.89c0-2.93-1.38-5.77-6.44-5.77S82.66,9,82.66,11.89V15.2C82.66,18.13,84,21,89.1,21Zm0-3.55c-1.53,0-2.22-.76-2.22-2.1V11.77c0-1.35.69-2.11,2.22-2.11s2.23.76,2.23,2.11v3.55c0,1.34-.71,2.1-2.23,2.1Zm13.73,3.26V0L98.61.59V20.68Zm.56-7.18,3.8,7.18h4.52l-3.92-7.18,3.74-7.09H107Z"/><path class="cls-2" d="M130,20.7h1.53L125.44,3.15h-2.3L117,20.7h1.53l1.63-4.61h8.17ZM124.27,4.05l3.62,10.7h-7.22Zm10,13.36c0,2.32,1.13,3.56,3.63,3.56a7.35,7.35,0,0,0,4.33-1.48l.08,1.21h1.4V2.41l-1.53.21V8a19.26,19.26,0,0,0-4-.42c-2.91,0-4,1.6-4,4Zm7.91.55A6.56,6.56,0,0,1,138,19.6c-1.74,0-2.22-.71-2.22-2.19V11.56c0-1.74.68-2.58,2.37-2.58a20.06,20.06,0,0,1,4,.44Zm13.65-.5c0-2.39-.2-3-4-4-2.37-.61-2.48-.79-2.48-2.56,0-1.39.32-2,2.56-2a19.41,19.41,0,0,1,3.58.37l.16-1.3A14.47,14.47,0,0,0,152,7.61c-3.16,0-4.18,1.15-4.18,3.29,0,2.35.26,3.14,3.48,3.9,2.92.68,3,.88,3,2.72,0,1.63-.47,2.08-2.84,2.08a13,13,0,0,1-3.4-.52l-.27,1.23a11.13,11.13,0,0,0,3.77.66C155,21,155.8,19.78,155.8,17.46Z"/></g></g></svg>