<svg xmlns="http://www.w3.org/2000/svg" viewBox="0 0 157.59 45.3"><defs><style>.cls-1{fill:#8ab4f8;}.cls-2{fill:#4285f4;}.cls-3{fill:#246fdb;}.cls-4{fill:#757575;}</style></defs><g id="Capa_2" data-name="Capa 2"><g id="Layer_1" data-name="Layer 1"><path class="cls-1" d="M26.59,43.58l-7.86-7.87L35.62,18.64l8,8Z"/><path class="cls-2" d="M26.65,9.67l-8-8-17,17a5.66,5.66,0,0,0,0,8h0l17,17,7.86-7.89L13.67,22.66Z"/><path class="cls-1" d="M43.63,18.64l-17-17a5.66,5.66,0,0,0-8,8l17,17a5.66,5.66,0,1,0,8-8Z"/><circle class="cls-3" cx="22.58" cy="39.69" r="5.61"/><path class="cls-4" d="M58.53,26V37.77H56.8V26H53.05V24.34h9.23V26Z"/><path class="cls-4" d="M65.86,28.28a4.3,4.3,0,0,1,3,1A3.62,3.62,0,0,1,70,32.11v5.66H68.33V36.49h-.07a3.29,3.29,0,0,1-2.85,1.58,3.71,3.71,0,0,1-2.54-.9,2.88,2.88,0,0,1-1-2.25,2.75,2.75,0,0,1,1.07-2.27,4.57,4.57,0,0,1,2.88-.85,5,5,0,0,1,2.53.57V32a1.92,1.92,0,0,0-.71-1.52A2.43,2.43,0,0,0,66,29.82,2.64,2.64,0,0,0,63.66,31l-1.51-1A4.22,4.22,0,0,1,65.86,28.28ZM63.63,35a1.37,1.37,0,0,0,.57,1.12,2.11,2.11,0,0,0,1.34.45,2.77,2.77,0,0,0,1.94-.8,2.53,2.53,0,0,0,.85-1.9,3.54,3.54,0,0,0-2.25-.64,2.9,2.9,0,0,0-1.75.51A1.51,1.51,0,0,0,63.63,35Z"/><path class="cls-4" d="M75.91,42.12a5.17,5.17,0,0,1-1.44-.2,4.57,4.57,0,0,1-1.23-.55,4.06,4.06,0,0,1-.95-.84,3.74,3.74,0,0,1-.6-1.09l1.63-.68a2.59,2.59,0,0,0,1,1.3,2.76,2.76,0,0,0,1.61.48,2.84,2.84,0,0,0,2.19-.84,3.26,3.26,0,0,0,.79-2.33v-.88h-.07a3.41,3.41,0,0,1-1.33,1.16,3.92,3.92,0,0,1-1.81.42,4,4,0,0,1-3.09-1.41,5.07,5.07,0,0,1-1.27-3.49,5,5,0,0,1,1.27-3.46,4,4,0,0,1,3.09-1.43,3.92,3.92,0,0,1,1.81.42,3.41,3.41,0,0,1,1.33,1.16h.07V28.58h1.65v8.79a4.7,4.7,0,0,1-1.25,3.47A4.59,4.59,0,0,1,75.91,42.12ZM76,36.49a2.62,2.62,0,0,0,2.08-.92,3.41,3.41,0,0,0,.84-2.4,3.44,3.44,0,0,0-.84-2.38A2.67,2.67,0,0,0,76,29.86a2.72,2.72,0,0,0-2.09.93,3.81,3.81,0,0,0,0,4.77A2.72,2.72,0,0,0,76,36.49Z"/><path class="cls-4" d="M88.79,37.77H87.07V24.34h1.72l4.67,8.18h.08l4.67-8.18h1.72V37.77H98.21v-8l.07-2.25h-.07L94,34.92H93l-4.2-7.37h-.07l.07,2.25Z"/><path class="cls-4" d="M105.54,28.28a4.3,4.3,0,0,1,3,1,3.66,3.66,0,0,1,1.1,2.81v5.66H108V36.49h-.07a3.31,3.31,0,0,1-2.85,1.58,3.69,3.69,0,0,1-2.54-.9,2.85,2.85,0,0,1-1-2.25,2.73,2.73,0,0,1,1.08-2.27,4.57,4.57,0,0,1,2.88-.85,5,5,0,0,1,2.53.57V32a1.92,1.92,0,0,0-.71-1.52,2.43,2.43,0,0,0-1.67-.63A2.64,2.64,0,0,0,103.34,31l-1.52-1A4.25,4.25,0,0,1,105.54,28.28ZM103.31,35a1.37,1.37,0,0,0,.57,1.12,2.11,2.11,0,0,0,1.34.45,2.78,2.78,0,0,0,1.94-.8,2.53,2.53,0,0,0,.85-1.9,3.58,3.58,0,0,0-2.25-.64,2.9,2.9,0,0,0-1.75.51A1.51,1.51,0,0,0,103.31,35Z"/><path class="cls-4" d="M111.61,28.58h1.65v1.28h.08a3,3,0,0,1,1.21-1.13,3.46,3.46,0,0,1,1.7-.45,3.36,3.36,0,0,1,2.59,1,3.83,3.83,0,0,1,.91,2.74v5.78H118V32.11a2,2,0,0,0-2.27-2.25,2.16,2.16,0,0,0-1.73.83,3,3,0,0,0-.69,2v5.08h-1.73Z"/><path class="cls-4" d="M125.17,28.28a4.28,4.28,0,0,1,3,1,3.63,3.63,0,0,1,1.11,2.81v5.66h-1.65V36.49h-.08a3.29,3.29,0,0,1-2.85,1.58,3.71,3.71,0,0,1-2.54-.9,2.88,2.88,0,0,1-1-2.25,2.73,2.73,0,0,1,1.08-2.27,4.57,4.57,0,0,1,2.88-.85,5.07,5.07,0,0,1,2.53.57V32a1.93,1.93,0,0,0-.72-1.52,2.42,2.42,0,0,0-1.66-.63A2.62,2.62,0,0,0,123,31l-1.52-1A4.23,4.23,0,0,1,125.17,28.28ZM122.94,35a1.37,1.37,0,0,0,.57,1.12,2.11,2.11,0,0,0,1.34.45,2.75,2.75,0,0,0,1.94-.8,2.54,2.54,0,0,0,.86-1.9,3.58,3.58,0,0,0-2.25-.64,2.93,2.93,0,0,0-1.76.51A1.53,1.53,0,0,0,122.94,35Z"/><path class="cls-4" d="M135.22,42.12a5.17,5.17,0,0,1-1.44-.2,4.57,4.57,0,0,1-1.23-.55,4.27,4.27,0,0,1-1-.84,3.74,3.74,0,0,1-.6-1.09l1.64-.68a2.57,2.57,0,0,0,1,1.3,2.76,2.76,0,0,0,1.61.48,2.88,2.88,0,0,0,2.2-.84,3.3,3.3,0,0,0,.78-2.33v-.88h-.07a3.38,3.38,0,0,1-1.32,1.16,4,4,0,0,1-1.81.42,4.08,4.08,0,0,1-3.1-1.41,5.07,5.07,0,0,1-1.27-3.49,5,5,0,0,1,1.27-3.46,4.07,4.07,0,0,1,3.1-1.43,4,4,0,0,1,1.81.42,3.38,3.38,0,0,1,1.32,1.16h.07V28.58h1.66v8.79a4.66,4.66,0,0,1-1.26,3.47A4.58,4.58,0,0,1,135.22,42.12Zm.06-5.63a2.62,2.62,0,0,0,2.08-.92,3.41,3.41,0,0,0,.84-2.4,3.44,3.44,0,0,0-.84-2.38,2.66,2.66,0,0,0-2.08-.93,2.7,2.7,0,0,0-2.08.93,3.77,3.77,0,0,0,0,4.77A2.7,2.7,0,0,0,135.28,36.49Z"/><path class="cls-4" d="M146,38.07a4.38,4.38,0,0,1-3.34-1.39,4.86,4.86,0,0,1-1.31-3.51,5,5,0,0,1,1.27-3.49,4.59,4.59,0,0,1,6.52-.08,5.33,5.33,0,0,1,1.21,3.71l0,.18H143.1a3,3,0,0,0,.9,2.18,2.91,2.91,0,0,0,4.65-.83l1.54.75a4.57,4.57,0,0,1-1.72,1.82A4.72,4.72,0,0,1,146,38.07Zm-2.76-6h5.27a2.29,2.29,0,0,0-.78-1.59,2.72,2.72,0,0,0-1.88-.62,2.51,2.51,0,0,0-1.68.6A2.81,2.81,0,0,0,143.23,32.07Z"/><path class="cls-4" d="M153.64,37.77h-1.73V28.58h1.65v1.5h.08a2.46,2.46,0,0,1,1.08-1.25,3,3,0,0,1,1.6-.51,3.21,3.21,0,0,1,1.27.22l-.52,1.67a2.79,2.79,0,0,0-1-.13,2.22,2.22,0,0,0-1.7.79,2.63,2.63,0,0,0-.72,1.84Z"/><path class="cls-4" d="M59.33,9h6.58a3.36,3.36,0,0,1,.09.54,4.49,4.49,0,0,1,0,.64,7.46,7.46,0,0,1-.39,2.43,5.76,5.76,0,0,1-1.24,2,6.17,6.17,0,0,1-2.16,1.48,7.38,7.38,0,0,1-2.87.53,7.24,7.24,0,0,1-2.75-.53,6.78,6.78,0,0,1-2.25-1.46,7,7,0,0,1-1.52-2.22,6.89,6.89,0,0,1-.57-2.81,7,7,0,0,1,2.09-5,6.65,6.65,0,0,1,2.25-1.47,7.23,7.23,0,0,1,2.75-.52,7.31,7.31,0,0,1,2.92.56,6.43,6.43,0,0,1,2.2,1.56l-1.74,1.7A4.91,4.91,0,0,0,61.3,5.43a4.77,4.77,0,0,0-1.94-.36,4.64,4.64,0,0,0-1.74.33,4.38,4.38,0,0,0-2.43,2.38,4.84,4.84,0,0,0-.36,1.9,4.89,4.89,0,0,0,.36,1.91,4.52,4.52,0,0,0,1,1.45,4.4,4.4,0,0,0,1.45.93,4.71,4.71,0,0,0,1.76.33A4.82,4.82,0,0,0,61.21,14a4.37,4.37,0,0,0,1.27-.8,3.11,3.11,0,0,0,.64-.85,4.57,4.57,0,0,0,.43-1.16H59.33Z"/><path class="cls-4" d="M72.1,6.91a5.22,5.22,0,0,1,2,.36,4.76,4.76,0,0,1,1.54,1,4.68,4.68,0,0,1,1,1.54,5.57,5.57,0,0,1,0,3.94,4.5,4.5,0,0,1-2.55,2.56,5.38,5.38,0,0,1-3.92,0,4.5,4.5,0,0,1-2.55-2.56,5.08,5.08,0,0,1-.37-2,5.08,5.08,0,0,1,.37-2,4.58,4.58,0,0,1,2.55-2.56A5.18,5.18,0,0,1,72.1,6.91Zm0,7.52a2.42,2.42,0,0,0,.91-.18,2.37,2.37,0,0,0,.78-.52,2.47,2.47,0,0,0,.53-.82,3.18,3.18,0,0,0,0-2.22,2.47,2.47,0,0,0-.53-.82A2.37,2.37,0,0,0,73,9.35a2.62,2.62,0,0,0-.91-.17,2.55,2.55,0,0,0-.92.17,2.33,2.33,0,0,0-.77.52,2.47,2.47,0,0,0-.53.82,2.82,2.82,0,0,0-.2,1.11,2.82,2.82,0,0,0,.2,1.11,2.47,2.47,0,0,0,.53.82,2.33,2.33,0,0,0,.77.52A2.36,2.36,0,0,0,72.1,14.43Z"/><path class="cls-4" d="M82.9,6.91a5.22,5.22,0,0,1,2,.36,4.76,4.76,0,0,1,1.54,1,4.68,4.68,0,0,1,1,1.54,5.57,5.57,0,0,1,0,3.94,4.5,4.5,0,0,1-2.55,2.56,5.38,5.38,0,0,1-3.92,0,4.5,4.5,0,0,1-2.55-2.56,5.43,5.43,0,0,1,0-3.94,4.58,4.58,0,0,1,2.55-2.56A5.18,5.18,0,0,1,82.9,6.91Zm0,7.52a2.42,2.42,0,0,0,.91-.18,2.37,2.37,0,0,0,.78-.52,2.47,2.47,0,0,0,.53-.82,3.18,3.18,0,0,0,0-2.22,2.47,2.47,0,0,0-.53-.82,2.37,2.37,0,0,0-.78-.52,2.62,2.62,0,0,0-.91-.17,2.55,2.55,0,0,0-.92.17,2.33,2.33,0,0,0-.77.52,2.47,2.47,0,0,0-.53.82,3.18,3.18,0,0,0,0,2.22,2.47,2.47,0,0,0,.53.82,2.33,2.33,0,0,0,.77.52A2.36,2.36,0,0,0,82.9,14.43Z"/><path class="cls-4" d="M93.59,20.75a5.49,5.49,0,0,1-1.74-.26,5.08,5.08,0,0,1-1.32-.65,4.72,4.72,0,0,1-.94-.89,3.42,3.42,0,0,1-.54-1L91.39,17a2.28,2.28,0,0,0,.87,1.14,2.31,2.31,0,0,0,1.33.4,2.34,2.34,0,0,0,1.83-.75,3,3,0,0,0,.68-2.08V15.1H96a3.08,3.08,0,0,1-1.13,1,3.76,3.76,0,0,1-1.66.35,4.12,4.12,0,0,1-1.61-.34,4.21,4.21,0,0,1-1.38-.95,5,5,0,0,1-1-1.5,4.88,4.88,0,0,1-.38-1.95,5,5,0,0,1,.38-2,4.79,4.79,0,0,1,1-1.5,4.13,4.13,0,0,1,3-1.29,3.76,3.76,0,0,1,1.66.34A3.08,3.08,0,0,1,96,8.2h.15v-1h2.34v8.53a6,6,0,0,1-.35,2.09,4.58,4.58,0,0,1-1,1.58,4.26,4.26,0,0,1-1.52,1A5.49,5.49,0,0,1,93.59,20.75Zm.09-6.57a2.5,2.5,0,0,0,.89-.16,2.25,2.25,0,0,0,.78-.49,2.46,2.46,0,0,0,.54-.79,2.6,2.6,0,0,0,.21-1.08,2.72,2.72,0,0,0-.21-1.09,2.51,2.51,0,0,0-.54-.8,2.22,2.22,0,0,0-.78-.48,2.51,2.51,0,0,0-.89-.17,2.46,2.46,0,0,0-.88.17,2.24,2.24,0,0,0-.77.49,2.51,2.51,0,0,0-.54.8,2.67,2.67,0,0,0-.21,1.08,2.6,2.6,0,0,0,.21,1.08,2.46,2.46,0,0,0,.54.79,2.4,2.4,0,0,0,.77.49A2.44,2.44,0,0,0,93.68,14.18Z"/><path class="cls-4" d="M100.55,16.4V3H103V16.4Z"/><path class="cls-4" d="M113.71,14.18A5.18,5.18,0,0,1,112,16a4.77,4.77,0,0,1-2.63.7,5.12,5.12,0,0,1-1.94-.37,4.59,4.59,0,0,1-2.57-2.57,5.18,5.18,0,0,1-.37-2,5,5,0,0,1,.36-1.88,4.83,4.83,0,0,1,1-1.56,4.9,4.9,0,0,1,1.51-1.06,4.64,4.64,0,0,1,1.92-.39,5.05,5.05,0,0,1,2,.36,4,4,0,0,1,1.45,1,4.49,4.49,0,0,1,.88,1.52,5.94,5.94,0,0,1,.3,1.92V12a1.83,1.83,0,0,0,0,.21,1.23,1.23,0,0,0,0,.2H106.9a2.52,2.52,0,0,0,.31,1,2.36,2.36,0,0,0,.58.67,2.14,2.14,0,0,0,.76.4,3.06,3.06,0,0,0,.85.12,2.42,2.42,0,0,0,1.39-.38,2.92,2.92,0,0,0,.88-1Zm-2.23-3.56a1.9,1.9,0,0,0-.16-.54,2.16,2.16,0,0,0-.41-.57,2.32,2.32,0,0,0-.68-.43,2.55,2.55,0,0,0-1-.17,2.24,2.24,0,0,0-1.38.45,2.43,2.43,0,0,0-.85,1.26Z"/></g></g></svg>