<svg xmlns="http://www.w3.org/2000/svg" viewBox="0 0 149.99 42.34"><defs><style>.cls-1{fill:#669df3;}.cls-2{fill:#1a73e8;}.cls-3{fill:#7e7e7e;}</style></defs><g id="Capa_2" data-name="Capa 2"><g id="Layer_1" data-name="Layer 1"><path class="cls-1" d="M38.5,30.43h-16c-3.87,0-6,2.71-6,5.58,0,2.66,1.83,5.59,6,5.59h16Z"/><ellipse class="cls-2" cx="38.5" cy="36" rx="5.5" ry="5.58"/><path class="cls-1" d="M22,15.54H6c-3.87,0-6,2.71-6,5.59,0,2.65,1.84,5.58,6,5.58H22Z"/><ellipse class="cls-2" cx="22.01" cy="21.13" rx="5.5" ry="5.58"/><path class="cls-1" d="M38.5.67h-16c-3.87,0-6,2.7-6,5.58,0,2.66,1.83,5.58,6,5.58h16Z"/><ellipse class="cls-2" cx="38.5" cy="6.25" rx="5.5" ry="5.58"/><path class="cls-3" d="M66.93,9.15H76.4a6,6,0,0,1,.14.79c0,.3,0,.61,0,.91A10.85,10.85,0,0,1,76,14.36a8.24,8.24,0,0,1-1.79,2.95,8.85,8.85,0,0,1-3.1,2.13A10.71,10.71,0,0,1,67,20.2a10.51,10.51,0,0,1-4-.76,9.87,9.87,0,0,1-3.24-2.11,10,10,0,0,1-2.19-3.2,9.9,9.9,0,0,1-.81-4,10,10,0,0,1,.81-4,10.12,10.12,0,0,1,2.19-3.2A9.84,9.84,0,0,1,63,.76a11,11,0,0,1,8.17.05,9.46,9.46,0,0,1,3.17,2.24L71.87,5.51A6.59,6.59,0,0,0,69.76,4,6.7,6.7,0,0,0,67,3.46a6.63,6.63,0,0,0-2.51.47,6.15,6.15,0,0,0-2.08,1.34A6.34,6.34,0,0,0,61,7.36a6.9,6.9,0,0,0-.52,2.74A6.9,6.9,0,0,0,61,12.84a6.21,6.21,0,0,0,1.43,2.09,6.5,6.5,0,0,0,2.1,1.34,6.85,6.85,0,0,0,2.53.47,6.71,6.71,0,0,0,2.61-.45,5.87,5.87,0,0,0,1.82-1.14,4.52,4.52,0,0,0,.93-1.23A7,7,0,0,0,73,12.26H66.93Z"/><path class="cls-3" d="M85.31,6.1a7.43,7.43,0,0,1,2.83.53,6.59,6.59,0,0,1,3.67,3.68,7.51,7.51,0,0,1,.52,2.84A7.43,7.43,0,0,1,91.81,16a6.59,6.59,0,0,1-1.46,2.23,6.71,6.71,0,0,1-2.21,1.46,7.79,7.79,0,0,1-5.65,0,6.71,6.71,0,0,1-2.21-1.46A6.59,6.59,0,0,1,78.82,16a7.43,7.43,0,0,1-.53-2.83,7.52,7.52,0,0,1,.53-2.84,6.59,6.59,0,0,1,3.67-3.68A7.41,7.41,0,0,1,85.31,6.1Zm0,10.83a3.48,3.48,0,0,0,1.31-.26,3.27,3.27,0,0,0,1.12-.74,3.4,3.4,0,0,0,.77-1.19,4.5,4.5,0,0,0,0-3.18,3.4,3.4,0,0,0-.77-1.19,3.13,3.13,0,0,0-1.12-.74,3.46,3.46,0,0,0-2.63,0,3.37,3.37,0,0,0-1.11.74,3.55,3.55,0,0,0-.77,1.19,4.65,4.65,0,0,0,0,3.18A3.39,3.39,0,0,0,84,16.67,3.45,3.45,0,0,0,85.31,16.93Z"/><path class="cls-3" d="M100.87,6.1a7.41,7.41,0,0,1,2.82.53,6.59,6.59,0,0,1,3.67,3.68,7.52,7.52,0,0,1,.53,2.84,7.43,7.43,0,0,1-.53,2.83,6.59,6.59,0,0,1-1.46,2.23,6.71,6.71,0,0,1-2.21,1.46,7.79,7.79,0,0,1-5.65,0,6.71,6.71,0,0,1-2.21-1.46A6.59,6.59,0,0,1,94.37,16a7.43,7.43,0,0,1-.52-2.83,7.51,7.51,0,0,1,.52-2.84A6.59,6.59,0,0,1,98,6.63,7.43,7.43,0,0,1,100.87,6.1Zm0,10.83a3.47,3.47,0,0,0,1.3-.26,3.29,3.29,0,0,0,1.89-1.93,4.5,4.5,0,0,0,0-3.18,3.38,3.38,0,0,0-.76-1.19,3.52,3.52,0,0,0-2.43-1,3.32,3.32,0,0,0-1.33.26,3.42,3.42,0,0,0-1.87,1.93,4.5,4.5,0,0,0,0,3.18,3.27,3.27,0,0,0,.77,1.19,3.39,3.39,0,0,0,1.1.74A3.5,3.5,0,0,0,100.87,16.93Z"/><path class="cls-3" d="M116.25,26a7.67,7.67,0,0,1-2.49-.37,7,7,0,0,1-1.91-.94,6.63,6.63,0,0,1-1.35-1.28,5,5,0,0,1-.78-1.41l3.38-1.35a3.21,3.21,0,0,0,1.24,1.64,3.63,3.63,0,0,0,4.56-.51,4.3,4.3,0,0,0,1-3V17.9h-.21A4.29,4.29,0,0,1,118,19.26a5.23,5.23,0,0,1-2.39.5,5.75,5.75,0,0,1-2.3-.48,6.16,6.16,0,0,1-2-1.37,7.06,7.06,0,0,1-1.4-2.16,7,7,0,0,1-.54-2.8,7.09,7.09,0,0,1,.54-2.82A7,7,0,0,1,111.34,8a6,6,0,0,1,2-1.38,5.75,5.75,0,0,1,2.3-.48,5.37,5.37,0,0,1,2.39.5A4.4,4.4,0,0,1,119.66,8h.21V6.53h3.38V18.82a8.37,8.37,0,0,1-.51,3,6.53,6.53,0,0,1-1.44,2.27,6.12,6.12,0,0,1-2.2,1.43A7.82,7.82,0,0,1,116.25,26Zm.14-9.45a3.58,3.58,0,0,0,1.28-.24,3.17,3.17,0,0,0,1.12-.7,3.47,3.47,0,0,0,.79-1.14,4,4,0,0,0,.29-1.55,4.07,4.07,0,0,0-.29-1.57,3.41,3.41,0,0,0-.79-1.15,3.17,3.17,0,0,0-1.12-.7,3.58,3.58,0,0,0-1.28-.24,3.53,3.53,0,0,0-1.27.24,3.29,3.29,0,0,0-1.11.71,3.81,3.81,0,0,0-.78,1.16,3.76,3.76,0,0,0-.3,1.55,3.79,3.79,0,0,0,.3,1.55,3.6,3.6,0,0,0,.78,1.14,3.42,3.42,0,0,0,1.11.7A3.53,3.53,0,0,0,116.39,16.58Z"/><path class="cls-3" d="M126.27,19.76V.43h3.54V19.76Z"/><path class="cls-3" d="M145.23,16.58a7.57,7.57,0,0,1-2.47,2.62,6.94,6.94,0,0,1-3.8,1,7.26,7.26,0,0,1-2.79-.53,6.64,6.64,0,0,1-3.7-3.7,7.34,7.34,0,0,1-.53-2.82,7.07,7.07,0,0,1,.52-2.71,6.75,6.75,0,0,1,1.43-2.25,7,7,0,0,1,2.17-1.52,6.63,6.63,0,0,1,2.77-.57,7.21,7.21,0,0,1,2.83.53,5.79,5.79,0,0,1,2.08,1.46,6.23,6.23,0,0,1,1.27,2.2,8.39,8.39,0,0,1,.43,2.75v.33a1.46,1.46,0,0,0,0,.29,1.39,1.39,0,0,0,0,.3h-10a4,4,0,0,0,.45,1.39,3.29,3.29,0,0,0,.84,1,3.25,3.25,0,0,0,1.09.57,4.18,4.18,0,0,0,1.22.17,3.43,3.43,0,0,0,2-.55,4,4,0,0,0,1.25-1.39ZM142,11.45a2,2,0,0,0-.23-.78,2.78,2.78,0,0,0-.59-.82,3.37,3.37,0,0,0-1-.62A3.64,3.64,0,0,0,138.83,9a3.24,3.24,0,0,0-2,.65,3.41,3.41,0,0,0-1.22,1.81Z"/><path class="cls-3" d="M56.8,42V28.43H61a6.81,6.81,0,0,1,5,1.88,6.66,6.66,0,0,1,1.89,4.92A6.65,6.65,0,0,1,66,40.17,6.84,6.84,0,0,1,61,42ZM58.55,30.1V40.36H61A5.14,5.14,0,1,0,61,30.1Z"/><path class="cls-3" d="M73.16,32.42a4.35,4.35,0,0,1,3.06,1,3.67,3.67,0,0,1,1.12,2.84V42H75.67v-1.3h-.08a3.32,3.32,0,0,1-2.89,1.6,3.74,3.74,0,0,1-2.57-.91,2.92,2.92,0,0,1-1-2.28,2.78,2.78,0,0,1,1.1-2.3A4.58,4.58,0,0,1,73.1,36a5.17,5.17,0,0,1,2.57.57v-.39A2,2,0,0,0,75,34.62a2.48,2.48,0,0,0-1.7-.64,2.66,2.66,0,0,0-2.31,1.24l-1.54-1A4.28,4.28,0,0,1,73.16,32.42ZM70.9,39.19a1.4,1.4,0,0,0,.58,1.14,2.14,2.14,0,0,0,1.36.45,2.78,2.78,0,0,0,2-.81,2.57,2.57,0,0,0,.87-1.92,3.62,3.62,0,0,0-2.28-.65,3,3,0,0,0-1.78.51A1.55,1.55,0,0,0,70.9,39.19Z"/><path class="cls-3" d="M82.81,42.19a2.69,2.69,0,0,1-1.89-.7,2.62,2.62,0,0,1-.77-2V34.32H78.52V32.73h1.63V29.88H81.9v2.85h2.28v1.59H81.9V39a1.69,1.69,0,0,0,.36,1.26,1.17,1.17,0,0,0,.82.33,1.9,1.9,0,0,0,.41,0,2.32,2.32,0,0,0,.37-.13l.55,1.56A4.6,4.6,0,0,1,82.81,42.19Z"/><path class="cls-3" d="M89.2,32.42a4.3,4.3,0,0,1,3,1,3.68,3.68,0,0,1,1.13,2.84V42H91.7v-1.3h-.07a3.33,3.33,0,0,1-2.89,1.6,3.72,3.72,0,0,1-2.57-.91,2.89,2.89,0,0,1-1-2.28,2.77,2.77,0,0,1,1.09-2.3A4.61,4.61,0,0,1,89.14,36a5.13,5.13,0,0,1,2.56.57v-.39A2,2,0,0,0,91,34.62,2.44,2.44,0,0,0,89.29,34,2.67,2.67,0,0,0,87,35.22l-1.54-1A4.3,4.3,0,0,1,89.2,32.42Zm-2.27,6.77a1.43,1.43,0,0,0,.58,1.14,2.16,2.16,0,0,0,1.36.45,2.8,2.8,0,0,0,2-.81,2.56,2.56,0,0,0,.86-1.92,3.58,3.58,0,0,0-2.28-.65,2.94,2.94,0,0,0-1.77.51A1.54,1.54,0,0,0,86.93,39.19Z"/><path class="cls-3" d="M107.66,38.41a3.53,3.53,0,0,1-1.31,2.87,5,5,0,0,1-3.23,1.06,4.77,4.77,0,0,1-3-1,5.08,5.08,0,0,1-1.79-2.7L100,38a4.2,4.2,0,0,0,.47,1.1,3.69,3.69,0,0,0,.71.85,3.4,3.4,0,0,0,.91.55,2.75,2.75,0,0,0,1,.2,3,3,0,0,0,2-.62,2,2,0,0,0,.76-1.64,2,2,0,0,0-.63-1.47,6.06,6.06,0,0,0-2.2-1.14c-1.09-.39-1.77-.65-2-.79a3.5,3.5,0,0,1-2.16-3.25A3.34,3.34,0,0,1,100,29.19a4.38,4.38,0,0,1,3-1.06,4.53,4.53,0,0,1,2.7.8,3.78,3.78,0,0,1,1.52,1.95l-1.64.69a2.42,2.42,0,0,0-.9-1.27,2.71,2.71,0,0,0-1.64-.5,2.63,2.63,0,0,0-1.73.57,1.68,1.68,0,0,0-.71,1.39,1.61,1.61,0,0,0,.55,1.21,9.36,9.36,0,0,0,2.65,1.22,6.71,6.71,0,0,1,3,1.72A3.67,3.67,0,0,1,107.66,38.41Z"/><path class="cls-3" d="M112.68,42.19a2.69,2.69,0,0,1-1.89-.7,2.62,2.62,0,0,1-.77-2V34.32h-1.63V32.73H110V29.88h1.75v2.85h2.28v1.59h-2.28V39a1.69,1.69,0,0,0,.36,1.26,1.17,1.17,0,0,0,.82.33,1.81,1.81,0,0,0,.4,0,1.78,1.78,0,0,0,.37-.13l.56,1.56A4.6,4.6,0,0,1,112.68,42.19Z"/><path class="cls-3" d="M123.89,42h-1.67v-1.3h-.08a3.07,3.07,0,0,1-1.22,1.14,3.8,3.8,0,0,1-4.36-.52,3.92,3.92,0,0,1-.92-2.78V32.73h1.75v5.73a2.05,2.05,0,0,0,2.3,2.28,2.19,2.19,0,0,0,1.75-.84,3,3,0,0,0,.7-2V32.73h1.75Z"/><path class="cls-3" d="M129.82,42.34a4.11,4.11,0,0,1-3.14-1.44,5.43,5.43,0,0,1,0-7,4.15,4.15,0,0,1,5-1A3.27,3.27,0,0,1,133,34h.08L133,32.73v-4.3h1.75V42h-1.67v-1.3H133a3.2,3.2,0,0,1-1.3,1.16A4.06,4.06,0,0,1,129.82,42.34Zm.28-1.6a2.68,2.68,0,0,0,2.11-.93,3.83,3.83,0,0,0,0-4.84A2.7,2.7,0,0,0,130.1,34,2.75,2.75,0,0,0,128,35a3.46,3.46,0,0,0-.85,2.41,3.41,3.41,0,0,0,.85,2.41A2.71,2.71,0,0,0,130.1,40.74Z"/><path class="cls-3" d="M139.13,29.52a1.19,1.19,0,0,1-.36.87,1.22,1.22,0,0,1-.88.36,1.24,1.24,0,0,1,0-2.47,1.22,1.22,0,0,1,.88.36A1.19,1.19,0,0,1,139.13,29.52Zm-.36,3.21V42H137V32.73Z"/><path class="cls-3" d="M140.42,37.38a4.92,4.92,0,0,1,1.35-3.55,4.59,4.59,0,0,1,3.44-1.41,4.53,4.53,0,0,1,3.42,1.41A4.89,4.89,0,0,1,150,37.38a4.82,4.82,0,0,1-1.36,3.55,4.53,4.53,0,0,1-3.42,1.41,4.59,4.59,0,0,1-3.44-1.41A4.91,4.91,0,0,1,140.42,37.38Zm1.75,0a3.41,3.41,0,0,0,.87,2.43,3,3,0,0,0,4.33,0,3.77,3.77,0,0,0,0-4.84,2.85,2.85,0,0,0-2.16-.95A2.89,2.89,0,0,0,143,35,3.38,3.38,0,0,0,142.17,37.38Z"/></g></g></svg>