<svg xmlns="http://www.w3.org/2000/svg" viewBox="0 0 200.49 41.68"><defs><style>.cls-1{fill:#eabb2d;}.cls-2{fill:#608cd7;}.cls-3{fill:#67a658;}.cls-4{fill:#7e7e7e;}</style></defs><g id="Capa_2" data-name="Capa 2"><g id="Layer_1" data-name="Layer 1"><rect class="cls-1" x="7.94" y="-1.29" width="14.9" height="44.37" rx="5.87" transform="translate(12.51 -4.9) rotate(30)"/><rect class="cls-2" x="22.75" y="-1.4" width="14.9" height="44.37" rx="5.87" transform="translate(-6.35 17.89) rotate(-30)"/><circle class="cls-3" cx="8.13" cy="33.54" r="7.55"/><path id="path4243" class="cls-4" d="M121.57,29.55a4,4,0,0,0,2.86-4.19,4.36,4.36,0,0,0-1.06-3.09,3.82,3.82,0,0,0-6.5,1.77,3.4,3.4,0,0,0,0,2.69,4,4,0,0,0,2.25,2.65,5.65,5.65,0,0,1,.82.26c.51.22.56.22,1.61-.09Zm-3.26,9.79a7.94,7.94,0,0,1-4.51-3.83c-.25-.5-.12-.61,1.57-1.26,1.19-.46,1.58-.51,1.58-.21s1.13,1.6,1.91,2a3.9,3.9,0,0,0,4.58-1,5.68,5.68,0,0,0,.77-3l0-.46-.74.51a6,6,0,0,1-4.21.78,6.67,6.67,0,0,1-3.91-2.06,7,7,0,0,1-2.1-4,7.68,7.68,0,0,1,5.13-8.65c1.82-.59,4.38-.21,5.46.8l.41.39.06-.52.06-.52h3.29l.05,7.3c.06,7.67,0,8.72-.82,10.36a7.05,7.05,0,0,1-4.2,3.49A8.24,8.24,0,0,1,118.31,39.34Z"/><path id="path4239" class="cls-4" d="M90.34,29A4.72,4.72,0,0,0,91.94,24a4.3,4.3,0,0,0-3.68-3,4.07,4.07,0,0,0-4.17,4.24,4.24,4.24,0,0,0,2.8,4.18A5.09,5.09,0,0,0,90.34,29Zm-3.66,3.84a7.52,7.52,0,0,1-6-5.37A8.23,8.23,0,0,1,81,22.33a7.54,7.54,0,0,1,7.06-4.55c6,0,9.47,6.06,6.68,11.46a8,8,0,0,1-4.89,3.52A6.33,6.33,0,0,1,86.68,32.81Z"/><path id="path4235" class="cls-4" d="M138.31,24.65c.67-.3.42-.22.54-.22a11.18,11.18,0,0,0,1.53-.63,7,7,0,0,1,1.47-.55c.16,0-.78.4-.78.32a13.66,13.66,0,0,1,2.08-.95c1-.33,1-.35.68-.7a3.32,3.32,0,0,0-4-.43,4.28,4.28,0,0,0-2,2.63C137.72,25,137.65,24.94,138.31,24.65Zm1.92,8.16a7.55,7.55,0,0,1-5.74-5.52,10.51,10.51,0,0,1,0-4c1.12-3.45,3.67-5.49,6.87-5.49A6.29,6.29,0,0,1,146,19.69a8.73,8.73,0,0,1,2.15,3.59c0,.42-.22.54-2.47,1.42-1.8.71-2.68,1.07-4.11,1.69l-.82.34-1.18.5c-.46.2-.94.39-1.08.43-.44.14,1.07,1.55,1.9,1.78a4.19,4.19,0,0,0,4.19-.91,3.83,3.83,0,0,1,1-.72,9.48,9.48,0,0,1,2.6,1.75c0,.39-1.59,1.86-2.65,2.43a11.29,11.29,0,0,1-3.92,1.1c-.15,0-.76-.14-1.36-.28Z"/><path id="path4233" class="cls-4" d="M66.46,32.73A11.42,11.42,0,0,1,60.2,29.3a12.26,12.26,0,0,1-2.91-4.73,16.31,16.31,0,0,1,0-6.71,12.41,12.41,0,0,1,8.34-8,17.4,17.4,0,0,1,6.48.08,13.64,13.64,0,0,1,4.47,2.58c.22.27.11.45-.92,1.48a12,12,0,0,1-1.26,1.18,3.32,3.32,0,0,1-.63-.46,8.76,8.76,0,0,0-6.62-1.57,8.1,8.1,0,0,0-5.76,4.4,5.32,5.32,0,0,0-1,3.65,5.58,5.58,0,0,0,.86,3.52,10,10,0,0,0,1.53,2.15,8.17,8.17,0,0,0,8.07,2.27,6.38,6.38,0,0,0,3.36-1.79,5.64,5.64,0,0,0,1.68-3.09l.12-.68-3.7-.05-3.7-.05V20.11l5.29,0h5.41a2.67,2.67,0,0,1,.3,1,11,11,0,0,1-1.77,7.29c-1.18,1.8-2.44,2.77-5.13,3.95a15.71,15.71,0,0,1-6.3.37Z"/><path id="path4229" class="cls-4" d="M105.68,29.43a4.4,4.4,0,0,0,2.41-2.26,4.48,4.48,0,0,0,.4-1.9,4.35,4.35,0,0,0-.51-2.11,5,5,0,0,0-2.15-1.82,3.88,3.88,0,0,0-4.19.87,4.42,4.42,0,0,0,1.57,7.27A3.38,3.38,0,0,0,105.68,29.43Zm-3.15,3.31A7.59,7.59,0,0,1,98.64,20.3,7.67,7.67,0,1,1,109.6,31,7.14,7.14,0,0,1,105,32.84a13.23,13.23,0,0,1-2.44-.1Z"/><path id="path4213" class="cls-4" d="M129.54,21.42V10.27l1.78.06,1.78.05V32.47l-1.78.05-1.78,0V21.42Z"/><path id="path4203" class="cls-4" d="M168.35,23.3c-.06-.17-.82-2.24-1.68-4.61s-1.62-4.36-1.7-4.45a22.29,22.29,0,0,0-1.7,4.43,1.6,1.6,0,0,1-.17.48c-.17.27-1.6,4.12-1.6,4.31a20.79,20.79,0,0,0,3.48.15c3.21,0,3.48,0,3.37-.31Zm-13.24,8.8c0-.1.75-2.15,1.66-4.56l2.44-6.48c1.16-3.13,3-8,3.49-9.25a8.81,8.81,0,0,0,.44-1.33c0-.12.61-.19,1.71-.19,1.47,0,1.74,0,1.84.32.49,1.24,6.64,17.57,7,18.66.28.76.63,1.69.8,2.08a7.26,7.26,0,0,1,.29.78,9.39,9.39,0,0,1-1.63.07h-1.63l-.39-1.05c-.22-.58-.68-1.9-1-2.92l-.65-1.88h-9l-.29.78-1.07,2.94-.78,2.16-1.59,0C155.74,32.28,155.11,32.22,155.11,32.1Zm39.4.44a5.22,5.22,0,0,1-4-2.84c-.33-.62-.27-.73.56-1.06a2.93,2.93,0,0,0,.9-.5c.07-.12.25,0,.45.22,1.55,1.9,1.9,2.09,3.57,2,1-.07,1.18-.14,1.64-.7,1-1.2.29-2-2.53-2.71-3.17-.83-4.44-1.89-4.44-3.72a3.09,3.09,0,0,1,2-3.09,4.71,4.71,0,0,1,2.94-.6,4.45,4.45,0,0,1,2.71.5c1,.53,2.27,2,2.1,2.45,0,.13-.16.2-.24.15a2.42,2.42,0,0,0-1,.29c-.59.25-.91.31-1,.17a3.53,3.53,0,0,0-1.39-1.23,3.65,3.65,0,0,0-3,.26,1.36,1.36,0,0,0-.55.92c-.08.81.54,1.19,2.81,1.76,2.82.71,3.49,1.11,4.19,2.47a3.94,3.94,0,0,1-.35,3.57C198.76,32.26,197,32.84,194.51,32.54Zm-10.42-2.8a4.46,4.46,0,0,0,1.24-1.42,3.75,3.75,0,0,0,.51-2.23,4,4,0,0,0-1.39-3.44,3.37,3.37,0,0,0-4.86,0,4,4,0,0,0-1.33,3.11A4.27,4.27,0,0,0,180.57,30a3.9,3.9,0,0,0,3.52-.3Zm-3.41,2.78a6,6,0,0,1-4.37-3.59,5.14,5.14,0,0,1-.48-2.76,6.25,6.25,0,0,1,1.76-5,5.05,5.05,0,0,1,4.17-1.71,4.49,4.49,0,0,1,3.65,1.36l.46.5-.09-3.61-.09-3.61,1.25-.06a2.58,2.58,0,0,1,1.33.12c0,.1,0,4.2,0,9.11l0,8.92h-2.37l.06-.79.07-.79-.69.61a5.31,5.31,0,0,1-4.63,1.25Z"/></g></g></svg>