<svg xmlns="http://www.w3.org/2000/svg" viewBox="0 0 114.32 42.41"><defs><style>.cls-1{fill:#757575;}.cls-2{fill:#f9ab00;}.cls-3{fill:#e37400;}</style></defs><g id="Capa_2" data-name="Capa 2"><g id="Layer_1" data-name="Layer 1"><path class="cls-1" d="M43,25.8l2.51,6.58H40.68L43,25.8Zm-.94-2.2L36.61,38h2l1.41-3.91h6.11L47.57,38h2L44.12,23.6ZM71.69,38h1.89V23.61H71.69V38ZM52.43,29.55a4,4,0,0,1,3.13-1.72c2.51,0,3.76,1.72,3.76,4.23v6.11H57.43v-5.8c0-2-1.09-2.82-2.5-2.82a2.92,2.92,0,0,0-2.67,3V38H50.37V28h1.89l.16,1.57Zm8.46,5.5c0-2.21,2-3.45,4.39-3.45a4.2,4.2,0,0,1,2.66.63v-.32a2.34,2.34,0,0,0-2.51-2.35A2.3,2.3,0,0,0,63.08,31l-1.72-.78c.31-.94,1.57-2.35,4.07-2.35a4.06,4.06,0,0,1,4.39,4.23v6H68.1V36.61h-.16a3.78,3.78,0,0,1-3.29,1.72c-2,0-3.76-1.25-3.76-3.29m7-1.25a3.91,3.91,0,0,0-2.35-.63c-1.89,0-2.67,1.1-2.67,1.89,0,1.1,1.1,1.57,2,1.57a3.06,3.06,0,0,0,3-2.82"/><path class="cls-1" d="M76.24,42.41l2.21-5.17-3.92-9.09h1.89l3,6.9,3-6.9h1.89L78.16,42.41H76.24Zm27.58-11a3,3,0,0,0-2.66-2,3.2,3.2,0,0,0-3,3.44,3.21,3.21,0,0,0,3,3.45,3,3,0,0,0,2.66-1.89l1.57.94a4.61,4.61,0,0,1-4.23,2.82,5.1,5.1,0,0,1-4.86-5.33,5,5,0,0,1,4.86-5.32,4.59,4.59,0,0,1,4.23,2.82l-1.57,1.09Z"/><path class="cls-1" d="M110.56,38.34c2.5,0,3.76-1.41,3.76-3.14,0-3.76-5.49-2.35-5.49-4.54,0-.78.63-1.25,1.73-1.25a3.13,3.13,0,0,1,2.66,1.25l1.1-1.1a5.85,5.85,0,0,0-3.92-1.89c-2.35,0-3.6,1.41-3.6,3.14,0,3.6,5.64,2.35,5.64,4.23,0,.94-.63,1.56-1.89,1.56A3.1,3.1,0,0,1,108,35l-1.39,1.1c.94,1,2.35,2.21,3.92,2.21ZM92.7,38h1.89V28H92.7Z"/><path class="cls-1" d="M93.48,23.15a1.26,1.26,0,0,1,0,2.51,1.26,1.26,0,0,1,0-2.51ZM90.82,36.47l.31,1.41H89.24c-1.72,0-2.51-1.26-2.51-3.14V29.87H84.85V28h1.88V25h1.89v3h2.21v1.89H88.62v5.17c0,1.41,1.1,1.41,2.21,1.41Z"/><path class="cls-1" d="M46.13,7.67V10h5.49a4.73,4.73,0,0,1-1.26,2.82,5.62,5.62,0,0,1-4.23,1.72,6,6,0,0,1-6-6.11,6.08,6.08,0,0,1,6-6.11A6,6,0,0,1,50.2,3.92l1.57-1.57A8.16,8.16,0,0,0,46.13,0a8.49,8.49,0,0,0-8.46,8.29,8.5,8.5,0,0,0,8.46,8.3,7.33,7.33,0,0,0,5.8-2.36,7.36,7.36,0,0,0,2-5.32,4,4,0,0,0-.15-1.41H46.13ZM60.07,5.78a5.2,5.2,0,0,0-5.32,5.33,5.19,5.19,0,0,0,5.32,5.33,5.28,5.28,0,0,0,5.33-5.23v-.1A5.19,5.19,0,0,0,60.07,5.78Zm0,8.61a3.16,3.16,0,0,1-3-3.29,3.15,3.15,0,0,1,3-3.28,3.06,3.06,0,0,1,3,3.29,3.06,3.06,0,0,1-3,3.29ZM85.76,6.88a4.07,4.07,0,0,0-3-1.25,5.22,5.22,0,0,0-5,5.32,5.22,5.22,0,0,0,5,5.33A3.67,3.67,0,0,0,85.6,15h.16v.78c0,2-1.1,3.14-2.82,3.14a3,3,0,0,1-2.66-1.89l-2,.78A5.19,5.19,0,0,0,82.94,21c2.82,0,5.17-1.57,5.17-5.64V5.62h-2.2V6.87ZM83.1,14.4a3,3,0,0,1-2.82-3.29,2.85,2.85,0,1,1,5.64,0A3,3,0,0,1,83.1,14.4ZM71.66,5.79a5.2,5.2,0,0,0-5.33,5.33,5.2,5.2,0,0,0,5.33,5.33A5.29,5.29,0,0,0,77,11.22v-.1A5.11,5.11,0,0,0,71.66,5.79Zm0,8.61a3.16,3.16,0,0,1-3-3.29,3.16,3.16,0,0,1,3-3.29,3.06,3.06,0,0,1,3,3.29A3.06,3.06,0,0,1,71.66,14.4ZM89.85.15h2.36v16.3H89.85Zm8.78,14.26A3,3,0,0,1,96,12.84l7.21-3-.31-.63a4.9,4.9,0,0,0-9.56,1.88,5.28,5.28,0,0,0,5.23,5.33h.1a5.72,5.72,0,0,0,4.54-2.35l-1.89-1.26a3,3,0,0,1-2.66,1.57Zm-.16-6.58a2.11,2.11,0,0,1,2,1.25l-4.86,2C95.65,8.77,97.22,7.83,98.47,7.83Z"/><path class="cls-2" d="M22.93,5.27V32.8a4.44,4.44,0,0,0,4.38,4.79c2.09,0,4.38-1.46,4.38-4.79V5.48A4.38,4.38,0,0,0,27.31.9,4.45,4.45,0,0,0,22.93,5.27Z"/><path class="cls-3" d="M11.47,19.24V32.8a4.44,4.44,0,0,0,4.38,4.79c2.08,0,4.37-1.46,4.37-4.79V19.45a4.37,4.37,0,0,0-4.37-4.58A4.44,4.44,0,0,0,11.47,19.24Z"/><circle class="cls-3" cx="4.38" cy="33.21" r="4.38"/></g></g></svg>