<svg xmlns="http://www.w3.org/2000/svg" viewBox="0 0 134.87 60"><defs><style>.cls-1{fill:#767676;}.cls-2{fill:none;}.cls-3{fill:#5b7bba;}.cls-4{fill:#cd3930;}.cls-5{fill:#50a955;}.cls-6{fill:#eab330;}</style></defs><g id="Capa_2" data-name="Capa 2"><g id="Layer_1" data-name="Layer 1"><path class="cls-1" d="M31.72,42.33v9.76h-3.1V28h8.21a7.42,7.42,0,0,1,5.32,2.08,7,7,0,0,1,0,10.2,7.46,7.46,0,0,1-5.32,2Zm0-11.37v8.41H36.9A4.1,4.1,0,0,0,40,38.12,4.22,4.22,0,0,0,36.9,31Z"/><path class="cls-1" d="M52.65,35.06a7.63,7.63,0,0,1,5.41,1.84,6.47,6.47,0,0,1,2,5V52.09h-3V49.8H57a5.9,5.9,0,0,1-5.11,2.82A6.62,6.62,0,0,1,47.28,51a5.16,5.16,0,0,1-1.83-4,4.9,4.9,0,0,1,1.93-4.07,8.14,8.14,0,0,1,5.16-1.51,9.1,9.1,0,0,1,4.55,1v-.71A3.52,3.52,0,0,0,55.81,39a4.39,4.39,0,0,0-3-1.13A4.74,4.74,0,0,0,48.71,40L46,38.29A7.63,7.63,0,0,1,52.65,35.06Zm-4,12a2.46,2.46,0,0,0,1,2,3.74,3.74,0,0,0,2.4.81,5,5,0,0,0,3.49-1.45A4.55,4.55,0,0,0,57.09,45a6.39,6.39,0,0,0-4-1.14,5.28,5.28,0,0,0-3.15.9A2.71,2.71,0,0,0,48.64,47Z"/><path class="cls-1" d="M63.55,35.6h3v2.69h.13q1.38-3.16,5.69-3.16l.64.07v3.23l-1.38-.14A4.92,4.92,0,0,0,68,39.62,4.47,4.47,0,0,0,66.64,43v9.09H63.55ZM82.86,52.36a4.71,4.71,0,0,1-3.35-1.25,4.59,4.59,0,0,1-1.36-3.47V38.43h-2.9V35.6h2.9V30.55h3.09V35.6h4v2.83h-4v8.21a3,3,0,0,0,.64,2.23,2.06,2.06,0,0,0,1.45.59,3.38,3.38,0,0,0,.72-.08,3.93,3.93,0,0,0,.66-.22l1,2.76A8.27,8.27,0,0,1,82.86,52.36Z"/><path class="cls-1" d="M88.41,35.6h3v2.29h.13a5.6,5.6,0,0,1,2.17-2,6.25,6.25,0,0,1,3-.81,6.11,6.11,0,0,1,4.66,1.73A6.92,6.92,0,0,1,103,41.72V52.09H99.92V41.93c-.07-2.7-1.43-4-4.08-4a3.86,3.86,0,0,0-3.09,1.5A5.41,5.41,0,0,0,91.5,43v9.12H88.41Z"/><path class="cls-1" d="M114.05,52.62a7.88,7.88,0,0,1-6-2.49,8.78,8.78,0,0,1-2.36-6.29A8.92,8.92,0,0,1,108,37.57a8.22,8.22,0,0,1,11.69-.14,9.48,9.48,0,0,1,2.17,6.65l0,.33H108.87a5.37,5.37,0,0,0,1.61,3.91,5.21,5.21,0,0,0,8.34-1.48l2.76,1.34a8.23,8.23,0,0,1-3.08,3.27A8.52,8.52,0,0,1,114.05,52.62Zm-5-10.76h9.46a4.14,4.14,0,0,0-1.4-2.85,4.89,4.89,0,0,0-3.38-1.12,4.51,4.51,0,0,0-3,1.07A5.19,5.19,0,0,0,109.1,41.86Z"/><path class="cls-1" d="M127.77,52.09h-3.09V35.6h3v2.69h.13a4.53,4.53,0,0,1,1.94-2.24,5.39,5.39,0,0,1,2.87-.92,5.8,5.8,0,0,1,2.29.4l-.94,3a5.05,5.05,0,0,0-1.82-.24,4,4,0,0,0-3,1.41,4.78,4.78,0,0,0-1.3,3.3Z"/><path class="cls-2" d="M48.55,14.35a2.62,2.62,0,0,0-2,.86,2.94,2.94,0,0,0-.81,2.14,3,3,0,0,0,.81,2.14,2.71,2.71,0,0,0,4,0,3,3,0,0,0,.82-2.14,2.94,2.94,0,0,0-.81-2.14A2.61,2.61,0,0,0,48.55,14.35Z"/><path class="cls-2" d="M70.2,14.35a2.58,2.58,0,0,0-2,.88,3.24,3.24,0,0,0,0,4.26,2.57,2.57,0,0,0,2,.86,2.46,2.46,0,0,0,1.88-.84,3.15,3.15,0,0,0,.76-2.14,3.18,3.18,0,0,0-.76-2.16A2.42,2.42,0,0,0,70.2,14.35Z"/><path class="cls-2" d="M59.39,14.35a2.63,2.63,0,0,0-2,.86,2.93,2.93,0,0,0-.8,2.14,3,3,0,0,0,.8,2.14,2.6,2.6,0,0,0,2,.86,2.57,2.57,0,0,0,2-.86,3,3,0,0,0,.83-2.14,2.94,2.94,0,0,0-.81-2.14A2.63,2.63,0,0,0,59.39,14.35Z"/><path class="cls-2" d="M85.38,14.6a2.31,2.31,0,0,0-1.15-.29,2.54,2.54,0,0,0-1.83.83,2.71,2.71,0,0,0-.76,2.06l4.43-1.84A1.52,1.52,0,0,0,85.38,14.6Z"/><path class="cls-3" d="M35.64,13.92V16h5A4.43,4.43,0,0,1,39,19.12a5.66,5.66,0,0,1-7.3-.55,5.41,5.41,0,0,1-1.59-4,5.44,5.44,0,0,1,1.59-4A5.31,5.31,0,0,1,35.64,9a5.4,5.4,0,0,1,3.79,1.5L40.91,9a7.42,7.42,0,0,0-5.27-2.12,7.78,7.78,0,0,0-3.91,1,7.64,7.64,0,0,0-2.87,2.83,7.6,7.6,0,0,0,0,7.64,7.55,7.55,0,0,0,2.87,2.82,7.78,7.78,0,0,0,3.91,1,7.17,7.17,0,0,0,5.16-2,6.73,6.73,0,0,0,2-5.12,6.34,6.34,0,0,0-.11-1.31Z"/><path class="cls-4" d="M48.55,12.4a4.87,4.87,0,0,0-5,5,5,5,0,1,0,10,0,4.71,4.71,0,0,0-1.45-3.53A4.77,4.77,0,0,0,48.55,12.4Zm2,7.09a2.71,2.71,0,0,1-4,0,3,3,0,0,1-.81-2.14,2.94,2.94,0,0,1,.81-2.14,2.72,2.72,0,0,1,4,0,2.94,2.94,0,0,1,.81,2.14A3,3,0,0,1,50.52,19.49Z"/><rect class="cls-5" x="76.26" y="7.45" width="2.18" height="14.56"/><path class="cls-6" d="M59.39,12.4a4.82,4.82,0,0,0-3.55,1.42,4.76,4.76,0,0,0-1.42,3.53,5,5,0,1,0,9.94,0,4.74,4.74,0,0,0-1.44-3.53A4.8,4.8,0,0,0,59.39,12.4Zm2,7.09a2.57,2.57,0,0,1-2,.86,2.6,2.6,0,0,1-2-.86,3,3,0,0,1-.8-2.14,2.93,2.93,0,0,1,.8-2.14,2.73,2.73,0,0,1,4,0,2.94,2.94,0,0,1,.81,2.14A3,3,0,0,1,61.36,19.49Z"/><path class="cls-4" d="M84.4,20.35a2.53,2.53,0,0,1-2.4-1.5l6.62-2.74-.22-.56a5.19,5.19,0,0,0-.69-1.27,4.86,4.86,0,0,0-1-1,4.1,4.1,0,0,0-1.2-.65,4.26,4.26,0,0,0-1.39-.22,4.43,4.43,0,0,0-3.34,1.41,5,5,0,0,0-1.33,3.54,4.86,4.86,0,0,0,1.4,3.53,5,5,0,0,0,7.64-.77L86.84,19A2.8,2.8,0,0,1,84.4,20.35Zm-2-5.21a2.54,2.54,0,0,1,1.83-.83,2.31,2.31,0,0,1,1.15.29,1.52,1.52,0,0,1,.69.76L81.64,17.2A2.71,2.71,0,0,1,82.4,15.14Z"/><path class="cls-3" d="M72.69,13.51h-.07A3.24,3.24,0,0,0,70,12.4a4.54,4.54,0,0,0-3.34,1.46,5,5,0,0,0,0,7A4.6,4.6,0,0,0,70,22.31a3.23,3.23,0,0,0,2.61-1.13h.07v.51c0,2.07-.88,3.11-2.64,3.11a2.43,2.43,0,0,1-1.5-.49,3.07,3.07,0,0,1-1-1.27l-1.89.79A5.28,5.28,0,0,0,66.37,25a4.86,4.86,0,0,0,1,.92,5.54,5.54,0,0,0,1.25.6,4.8,4.8,0,0,0,1.43.21,4.48,4.48,0,0,0,3.46-1.34,5.41,5.41,0,0,0,1.25-3.82V12.7H72.69Zm-.61,6a2.46,2.46,0,0,1-1.88.84,2.57,2.57,0,0,1-2-.86,3.24,3.24,0,0,1,0-4.26,2.58,2.58,0,0,1,2-.88,2.42,2.42,0,0,1,1.88.86,3.18,3.18,0,0,1,.76,2.16A3.15,3.15,0,0,1,72.08,19.51Z"/><rect class="cls-3" width="15.79" height="60"/></g></g></svg>