<svg xmlns="http://www.w3.org/2000/svg" viewBox="0 0 185.56 35"><defs><style>.cls-1{fill:#828282;}.cls-2{fill:#00659d;}.cls-3,.cls-4{fill:#211915;}.cls-4,.cls-5{fill-rule:evenodd;}.cls-5{fill:#fff;}</style></defs><g id="Capa_2" data-name="Capa 2"><g id="Layer_1" data-name="Layer 1"><path class="cls-1" d="M154.62,28.17h1.83L149.11,7.1h-2.75L139,28.17h1.84l2-5.53h9.81Zm-6.9-20L152.06,21h-8.67Zm12,16c0,2.79,1.36,4.27,4.36,4.27a8.91,8.91,0,0,0,5.2-1.77l.08,1.45H171v-22l-1.84.25V13a22.9,22.9,0,0,0-4.74-.5c-3.49,0-4.75,1.92-4.75,4.74Zm9.49.66a7.9,7.9,0,0,1-5,2c-2.08,0-2.66-.84-2.66-2.62v-7c0-2.09.83-3.1,2.85-3.1a23.82,23.82,0,0,1,4.81.53Zm16.39-.6c0-2.87-.25-3.61-4.78-4.74-2.84-.73-3-.95-3-3.07,0-1.68.39-2.37,3.07-2.37a23.75,23.75,0,0,1,4.3.44l.2-1.55a17.39,17.39,0,0,0-4.37-.53c-3.79,0-5,1.38-5,3.94,0,2.82.32,3.77,4.18,4.69,3.51.82,3.57,1.05,3.57,3.26,0,1.95-.57,2.49-3.42,2.49a15.57,15.57,0,0,1-4.08-.62l-.31,1.48a13.22,13.22,0,0,0,4.52.79C184.55,28.49,185.56,27.07,185.56,24.28Z"/><path class="cls-2" d="M97.36,2.51A2.54,2.54,0,0,1,99.93,0h29.64a2.54,2.54,0,0,1,2.57,2.51v30A2.54,2.54,0,0,1,129.57,35H99.93a2.54,2.54,0,0,1-2.57-2.51v-30Z"/><polygon class="cls-3" points="0 29.32 14.52 29.32 14.52 24.55 5.25 24.55 5.25 6.84 0 6.84 0 29.32 0 29.32"/><path class="cls-4" d="M21.86,29.32V13.51H16.61V29.32Zm-2.62-18a2.74,2.74,0,1,0,0-5.47,2.74,2.74,0,1,0-.07,5.47Z"/><path class="cls-4" d="M24.3,29.32h5.26V20.49a3.58,3.58,0,0,1,.17-1.28,2.87,2.87,0,0,1,2.69-1.92c1.9,0,2.66,1.45,2.66,3.57v8.46h5.26V20.26c0-4.86-2.59-7.12-6.05-7.12a5.24,5.24,0,0,0-4.77,2.67h0v-2.3H24.3c.07,1.49,0,15.81,0,15.81Z"/><path class="cls-3" d="M47.75,6.84H42.49V29.32h5.26V24.19l1.31-1.65,4.11,6.78h6.47l-6.92-9.81,6.05-6.68H52.45s-4.32,6-4.7,6.68V6.84Z"/><path class="cls-4" d="M73.68,22.73a12.69,12.69,0,0,0,.18-2.07c0-4.09-2.08-8.23-7.54-8.23-5.84,0-8.53,4.62-8.53,8.81,0,5.18,3.28,8.41,9,8.41a16.23,16.23,0,0,0,6.11-1l-.69-3.47a14.26,14.26,0,0,1-4.66.71c-2.46,0-4.6-1-4.77-3.16l10.88,0ZM62.76,19.17a3.43,3.43,0,0,1,3.29-3.34C68.43,15.83,69,18,69,19.17Z"/><path class="cls-4" d="M86.82,6.84v7.48h-.07a5.22,5.22,0,0,0-4.45-1.86c-4,0-7.61,3.24-7.57,8.77,0,5.12,3.21,8.46,7.22,8.46a6,6,0,0,0,5.29-2.77h.1l.21,2.4h4.66c-.07-1.12-.13-3-.13-4.92V6.84Zm0,15.16a5.86,5.86,0,0,1-.1,1.15,3.1,3.1,0,0,1-3.08,2.46c-2.17,0-3.59-1.75-3.59-4.52,0-2.59,1.21-4.68,3.63-4.68a3.1,3.1,0,0,1,3.07,2.49,4.26,4.26,0,0,1,.07.94V22Z"/><path class="cls-5" d="M107.9,29.3V13.49h-5.25V29.3Zm-2.62-18a2.74,2.74,0,1,0-2.94-2.73,2.74,2.74,0,0,0,2.94,2.73Z"/><path class="cls-5" d="M110.81,29.3h5.25V20.47a3.82,3.82,0,0,1,.17-1.28,2.89,2.89,0,0,1,2.7-1.92c1.9,0,2.66,1.45,2.66,3.57V29.3h5.25V20.24c0-4.86-2.59-7.12-6-7.12A5.23,5.23,0,0,0,116,15.79h0v-2.3h-5.25c.07,1.49,0,15.81,0,15.81Z"/></g></g></svg>