<svg xmlns="http://www.w3.org/2000/svg" xmlns:xlink="http://www.w3.org/1999/xlink" viewBox="0 0 150 43.53"><defs><style>.cls-1{fill:#646464;}.cls-2{fill:url(#linear-gradient);}.cls-3{fill:url(#linear-gradient-2);}.cls-4{opacity:0.44;isolation:isolate;fill:url(#radial-gradient);}</style><linearGradient id="linear-gradient" x1="-179.81" y1="-10683.71" x2="-145.36" y2="-10713.34" gradientTransform="matrix(0.56, 0, 0, -0.57, 100.28, -6066.35)" gradientUnits="userSpaceOnUse"><stop offset="0" stop-color="#729dd0"/><stop offset="1" stop-color="#486994"/></linearGradient><linearGradient id="linear-gradient-2" x1="-132.05" y1="-10731.27" x2="-144.35" y2="-10713.87" gradientTransform="matrix(0.56, 0, 0, -0.57, 100.28, -6066.35)" gradientUnits="userSpaceOnUse"><stop offset="0" stop-color="#f2d24c"/><stop offset="1" stop-color="#f8e67a"/></linearGradient><radialGradient id="radial-gradient" cx="-16379.5" cy="-3363.39" r="9.17" gradientTransform="matrix(0, -0.24, -1.05, 0, -3529.74, -3888.11)" gradientUnits="userSpaceOnUse"><stop offset="0" stop-color="#b6b6b6" stop-opacity="0.5"/><stop offset="1" stop-color="#7e7e7e" stop-opacity="0"/></radialGradient></defs><g id="Capa_2" data-name="Capa 2"><g id="Layer_1" data-name="Layer 1"><g id="g2303"><path id="path46" class="cls-1" d="M56.56,18.53q0-6.9-3.94-7.09a7.44,7.44,0,0,0-3,.5,4.7,4.7,0,0,0-1.61.85v11a7.81,7.81,0,0,0,4.47,1.47Q56.56,25,56.56,18.53Zm3.23.2a9.68,9.68,0,0,1-1.65,5.81A6.08,6.08,0,0,1,53,27.24,9.06,9.06,0,0,1,48,25.7v10l-2.81-1V12.52a6.29,6.29,0,0,1,1.77-1.46A12.15,12.15,0,0,1,53,9.56l0,0a5.62,5.62,0,0,1,5.06,2.7A11.4,11.4,0,0,1,59.79,18.73Z"/><path id="path48" class="cls-1" d="M77,25.27q0,4.71-.94,6.52a6.68,6.68,0,0,1-3.6,2.89,14,14,0,0,1-4.67.92l-.46-1.77a22.25,22.25,0,0,0,3.58-.69A4.78,4.78,0,0,0,73.72,31a10.73,10.73,0,0,0,.61-4.43v-.74a14.36,14.36,0,0,1-6,1.31,5.54,5.54,0,0,1-3.66-1.31,4.44,4.44,0,0,1-1.77-3.62V10.52l2.81-1V21.35a3.62,3.62,0,0,0,1.22,2.91,4.66,4.66,0,0,0,3.16,1,8,8,0,0,0,4.14-1.5V10H77Z"/><path id="path50" class="cls-1" d="M88,27.09c-.33,0-.64,0-.93,0A5.55,5.55,0,0,1,83.33,26,3.94,3.94,0,0,1,82,22.84V11.75H80.08V10H82V5.28l2.81-1V10H88v1.77H84.82v11A2.65,2.65,0,0,0,85.67,25a4.29,4.29,0,0,0,2.31.62Z"/><path id="path52" class="cls-1" d="M105,26.85h-2.81V16a5.17,5.17,0,0,0-.77-2.85A2.82,2.82,0,0,0,99,11.79c-1.29,0-2.91.68-4.84,2v13H91.3V.89L94.12,0V11.83a9.77,9.77,0,0,1,5.89-2,4.67,4.67,0,0,1,3.62,1.51A5.26,5.26,0,0,1,105,15.1V26.85Z"/><path id="path54" class="cls-1" d="M120,18.09a8.6,8.6,0,0,0-1-4.38,4.21,4.21,0,0,0-3.7-2.23q-4.64.27-4.63,6.63a10.86,10.86,0,0,0,1,4.87,3.89,3.89,0,0,0,3.72,2.45C118.43,25.4,120,23,120,18.09Zm3.08,0a10,10,0,0,1-1.92,6.28,7,7,0,0,1-5.86,2.81,6.79,6.79,0,0,1-5.78-2.81,10.12,10.12,0,0,1-1.89-6.28,9,9,0,0,1,2-6,7,7,0,0,1,5.67-2.58,7.14,7.14,0,0,1,5.7,2.58A9,9,0,0,1,123.06,18.11Z"/><path id="path56" class="cls-1" d="M139.2,26.85h-2.81V15.37a3.85,3.85,0,0,0-1.14-2.95,4.14,4.14,0,0,0-3-1,6.75,6.75,0,0,0-3.81,1.3V26.85h-2.82V12.37a13.86,13.86,0,0,1,4.47-2.31,13.49,13.49,0,0,1,3.4-.5,8.75,8.75,0,0,1,1.88.19,5.4,5.4,0,0,1,2.7,1.42A3.76,3.76,0,0,1,139.2,14Z"/><path id="path1948" class="cls-2" d="M17.35,1a24.06,24.06,0,0,0-4.05.35c-3.58.63-4.23,2-4.23,4.4V9h8.47V10H5.89A5.29,5.29,0,0,0,.6,14.34,15.74,15.74,0,0,0,.6,23c.6,2.5,2,4.29,4.5,4.29H8V23.37a5.39,5.39,0,0,1,5.29-5.26h8.46A4.27,4.27,0,0,0,26,13.81V5.74a4.72,4.72,0,0,0-4.24-4.4A25.22,25.22,0,0,0,17.35,1Zm-4.58,2.6a1.62,1.62,0,1,1-1.59,1.62A1.61,1.61,0,0,1,12.77,3.59Z"/><path id="path1950" class="cls-3" d="M27.05,10v3.77a5.43,5.43,0,0,1-5.29,5.37H13.3a4.31,4.31,0,0,0-4.23,4.3v8.07c0,2.29,2,3.64,4.23,4.3a14.16,14.16,0,0,0,8.46,0C23.9,35.23,26,34,26,31.55V28.32H17.54V27.24H30.23c2.47,0,3.38-1.72,4.24-4.29a14.55,14.55,0,0,0,0-8.61c-.61-2.45-1.77-4.3-4.24-4.3ZM22.3,30.47a1.62,1.62,0,1,1-1.59,1.61A1.6,1.6,0,0,1,22.3,30.47Z"/><path id="text3004" class="cls-1" d="M144.68,7.47h.49V4.38h1.17V4h-2.83v.37h1.17V7.47m2.1,0h.42V4.64l.92,2.83h.47l.95-2.82V7.47H150V4h-.61l-1,3-.89-3h-.68V7.47"/><path id="path1894" class="cls-4" d="M29,41.33c0,1.22-5.09,2.2-11.36,2.2s-11.35-1-11.35-2.2,5.08-2.2,11.35-2.2S29,40.12,29,41.33Z"/></g></g></g></svg>