<svg xmlns="http://www.w3.org/2000/svg" viewBox="0 0 70 62.95"><defs><style>.cls-1{fill:#fff;}.cls-2{fill:#53c1de;}</style></defs><g id="Capa_2" data-name="Capa 2"><g id="Layer_1" data-name="Layer 1"><path class="cls-1" d="M0,31.24c0,5.29,5.14,10.24,13.27,13-1.65,8.18-.33,14.78,4.12,17.36s11.4.84,17.89-4.8c6.29,5.44,12.67,7.6,17.13,5s6-9.67,4.34-18.11C65.23,41,70,36.78,70,31.42c0-5.16-5.15-9.64-13.17-12.43,1.82-8.78.32-15.21-4.32-17.9C48.05-1.5,41.59.73,35.17,6.29,28.52.35,22.13-1.47,17.49,1.2,13,3.78,11.72,10.49,13.33,18.82,5.46,21.55,0,26.1,0,31.24Z"/><path class="cls-2" d="M55.12,21.74c-.64-.23-1.31-.44-2-.64.12-.46.22-.92.32-1.36C55,12.39,54,6.46,50.62,4.5s-8.55.06-13.92,4.71c-.51.44-1,.92-1.55,1.41-.34-.33-.68-.65-1-.95-5.6-5-11.22-7.12-14.6-5.17s-4.22,7.44-2.88,14.41c.13.67.29,1.36.46,2.06-.8.22-1.57.46-2.3.72C8.21,24,4,27.55,4,31.28S8.48,39,15.33,41.37c.54.18,1.1.36,1.68.53-.19.75-.36,1.49-.5,2.22C15.2,51,16.2,56.4,19.42,58.27s8.94,0,14.41-4.78c.43-.38.87-.78,1.3-1.19q.84.81,1.68,1.53c5.27,4.56,10.48,6.41,13.71,4.55s4.44-7.76,3-14.87c-.1-.54-.23-1.1-.36-1.66.39-.12.78-.23,1.15-.36,7.14-2.34,11.78-6.15,11.79-10,0-3.74-4.32-7.38-11-9.7Z"/><path class="cls-1" d="M53.53,39l-1,.32a62.77,62.77,0,0,0-3.13-7.88,61.92,61.92,0,0,0,3-7.75c.63.18,1.25.38,1.84.58,5.75,2,9.25,4.94,9.25,7.19,0,2.41-3.81,5.52-10,7.54ZM51,44a22.79,22.79,0,0,1,.28,8.21c-.38,2-1.13,3.32-2,3.85-2,1.13-6.15-.35-10.66-4.25-.51-.45-1-.93-1.56-1.43a62.23,62.23,0,0,0,5.23-6.61,61.67,61.67,0,0,0,8.42-1.27c.13.51.24,1,.34,1.5ZM25.12,55.82c-1.92.67-3.44.69-4.36.16-2-1.14-2.77-5.51-1.64-11.36.13-.67.28-1.36.46-2.06A62.2,62.2,0,0,0,28,43.79a67,67,0,0,0,5.32,6.61c-.39.38-.79.74-1.18,1.08a22.27,22.27,0,0,1-7,4.34Zm-8.93-17A22.64,22.64,0,0,1,9,35c-1.54-1.33-2.31-2.64-2.31-3.7,0-2.27,3.39-5.15,9-7.09.69-.24,1.4-.46,2.15-.67a64.32,64.32,0,0,0,3,7.86,64.68,64.68,0,0,0-3.08,8c-.53-.15-1-.31-1.54-.48ZM19.25,18.4c-1.15-6-.36-10.47,1.59-11.6s6.68.53,11.52,4.85l.93.86A63.1,63.1,0,0,0,28,19.05a65.69,65.69,0,0,0-8.3,1.27q-.24-1-.42-1.92Zm26.8,6.69C45.44,24,44.81,23,44.17,22a57.2,57.2,0,0,1,5.66,1,56.44,56.44,0,0,1-2,5.34c-.56-1.07-1.15-2.15-1.78-3.24ZM35.14,14.42a56.54,56.54,0,0,1,3.65,4.42c-1.22-.06-2.45-.09-3.69-.1s-2.45,0-3.66.08c1.21-1.59,2.46-3.07,3.7-4.4Zm-11,10.64c-.62,1.06-1.21,2.13-1.76,3.21q-1.16-2.76-2-5.39c1.78-.39,3.67-.71,5.64-.95-.65,1-1.29,2.06-1.91,3.13ZM26,40.93A56.73,56.73,0,0,1,20.3,40c.56-1.78,1.24-3.62,2-5.49.56,1.08,1.14,2.15,1.76,3.22h0c.62,1.09,1.27,2.16,1.94,3.2Zm9.1,7.56A57.69,57.69,0,0,1,31.4,44c1.19,0,2.4.08,3.64.08s2.52,0,3.75-.07c-1.22,1.64-2.44,3.14-3.66,4.48Zm12.71-14A54.74,54.74,0,0,1,49.91,40a57.9,57.9,0,0,1-5.8,1c.65-1,1.29-2.07,1.92-3.16s1.24-2.19,1.81-3.29Zm-4.11,2c-1,1.68-2,3.29-3,4.8-1.85.13-3.75.19-5.7.19s-3.81-.07-5.62-.19c-1.05-1.54-2.07-3.16-3-4.83h0c-1-1.67-1.84-3.35-2.64-5q1.21-2.51,2.66-5h0c1-1.66,2-3.27,3-4.79,1.85-.14,3.75-.2,5.66-.2h0c1.93,0,3.83.08,5.68.23,1,1.52,2,3.12,3,4.79s1.86,3.36,2.67,5c-.82,1.67-1.71,3.35-2.69,5ZM49.29,6.8c2.08,1.2,2.87,6.05,1.55,12.39-.09.41-.18.82-.28,1.24a65.31,65.31,0,0,0-8.31-1.34A64.51,64.51,0,0,0,37,12.52c.48-.46,1-.89,1.43-1.31,4.6-4,8.89-5.54,10.85-4.41Z"/><path class="cls-2" d="M35.08,25.81a5.55,5.55,0,1,1-5.56,5.53,5.55,5.55,0,0,1,5.56-5.53"/></g></g></svg>