<svg width="48" height="48" viewBox="0 0 48 48" fill="none" xmlns="http://www.w3.org/2000/svg">
<path d="M24 42C14.0586 42 6 33.9414 6 24C6 14.0586 14.0586 6 24 6C33.9414 6 42 14.0586 42 24C42 33.9414 33.9414 42 24 42ZM36.006 24C35.9875 23.4933 35.8228 23.0028 35.5318 22.5877C35.2408 22.1725 34.8359 21.8503 34.366 21.6601C33.896 21.4698 33.3811 21.4196 32.8832 21.5154C32.3853 21.6112 31.9258 21.8489 31.56 22.2C29.5124 20.8081 27.1054 20.0391 24.63 19.986L25.8 14.37L29.652 15.18C29.6978 15.6057 29.8938 16.0011 30.2049 16.2953C30.5159 16.5894 30.9216 16.7631 31.3492 16.7851C31.7767 16.8071 32.1981 16.676 32.5377 16.4153C32.8773 16.1546 33.1129 15.7814 33.2021 15.3627C33.2914 14.9439 33.2284 14.5071 33.0246 14.1306C32.8208 13.7541 32.4895 13.4626 32.0901 13.3083C31.6908 13.1541 31.2495 13.1473 30.8455 13.2891C30.4416 13.4309 30.1014 13.712 29.886 14.082L25.476 13.2C25.4039 13.1842 25.3293 13.1828 25.2567 13.196C25.184 13.2092 25.1147 13.2367 25.0528 13.2769C24.9908 13.3171 24.9375 13.3692 24.8958 13.4301C24.8541 13.4911 24.825 13.5597 24.81 13.632L23.478 19.878C20.9722 19.9158 18.5321 20.6853 16.458 22.092C16.1805 21.8309 15.8496 21.6333 15.4881 21.5128C15.1267 21.3923 14.7433 21.3519 14.3647 21.3943C13.9861 21.4367 13.6212 21.5609 13.2953 21.7584C12.9695 21.9558 12.6904 22.2217 12.4776 22.5377C12.2647 22.8537 12.1231 23.2122 12.0625 23.5884C12.002 23.9645 12.024 24.3494 12.1269 24.7162C12.2299 25.083 12.4114 25.4231 12.6588 25.7128C12.9063 26.0025 13.2138 26.2349 13.56 26.394C13.5397 26.6576 13.5397 26.9224 13.56 27.186C13.56 31.218 18.258 34.494 24.054 34.494C29.85 34.494 34.548 31.218 34.548 27.186C34.5683 26.9224 34.5683 26.6576 34.548 26.394C34.9922 26.1732 35.3648 25.8313 35.6228 25.4076C35.8808 24.984 36.0137 24.496 36.006 24V24ZM18.006 25.8C18.006 25.3226 18.1956 24.8648 18.5332 24.5272C18.8708 24.1896 19.3286 24 19.806 24C20.2834 24 20.7412 24.1896 21.0788 24.5272C21.4164 24.8648 21.606 25.3226 21.606 25.8C21.606 26.2774 21.4164 26.7352 21.0788 27.0728C20.7412 27.4104 20.2834 27.6 19.806 27.6C19.3286 27.6 18.8708 27.4104 18.5332 27.0728C18.1956 26.7352 18.006 26.2774 18.006 25.8ZM28.464 30.75C27.1869 31.7124 25.6157 32.2022 24.018 32.136C22.4203 32.2022 20.8491 31.7124 19.572 30.75C19.4955 30.6567 19.4563 30.5383 19.4623 30.4178C19.4682 30.2973 19.5187 30.1833 19.604 30.098C19.6893 30.0127 19.8033 29.9622 19.9238 29.9563C20.0443 29.9503 20.1627 29.9895 20.256 30.066C21.3382 30.8598 22.6592 31.2599 24 31.2C25.3424 31.273 26.6696 30.8857 27.762 30.102C27.808 30.0504 27.8642 30.0089 27.927 29.98C27.9897 29.951 28.0578 29.9353 28.1269 29.9338C28.196 29.9323 28.2647 29.945 28.3287 29.9711C28.3926 29.9973 28.4506 30.0363 28.4988 30.0858C28.5471 30.1353 28.5846 30.1942 28.6092 30.2588C28.6337 30.3235 28.6447 30.3924 28.6414 30.4615C28.6381 30.5305 28.6207 30.5982 28.5902 30.6602C28.5597 30.7222 28.5167 30.7773 28.464 30.822V30.75V30.75ZM28.14 27.672C27.784 27.672 27.436 27.5664 27.14 27.3686C26.844 27.1709 26.6133 26.8897 26.477 26.5608C26.3408 26.2319 26.3051 25.87 26.3746 25.5208C26.444 25.1717 26.6155 24.8509 26.8672 24.5992C27.1189 24.3475 27.4397 24.176 27.7888 24.1066C28.138 24.0371 28.4999 24.0728 28.8288 24.209C29.1577 24.3453 29.4389 24.576 29.6366 24.872C29.8344 25.168 29.94 25.516 29.94 25.872C29.9498 26.1159 29.9098 26.3592 29.8226 26.5872C29.7354 26.8152 29.6028 27.023 29.4327 27.1981C29.2627 27.3732 29.0588 27.5119 28.8335 27.6058C28.6081 27.6996 28.3661 27.7466 28.122 27.744L28.14 27.672Z" fill="#FC471E"/>
</svg>
