<svg xmlns="http://www.w3.org/2000/svg" viewBox="0 0 210.81 23"><defs><style>.cls-1{fill:#b84e2b;}</style></defs><g id="Capa_2" data-name="Capa 2"><g id="Layer_1" data-name="Layer 1"><path class="cls-1" d="M95.53,2.09A2.61,2.61,0,0,1,98.08.61c3.73,0,7.46,0,11.19,0l-1.11,3.14c-3,0-6,0-8.92,0-.66,0-1.1.64-1.15,1.23a.41.41,0,0,0,.43.52c2.09,0,4.2,0,6.3,0a2.2,2.2,0,0,1,1.7.62,2.6,2.6,0,0,1,.26,2.52c-.45,1.16-.88,2.32-1.33,3.49a2.86,2.86,0,0,1-2.74,1.55h-11c.35-1,.73-2.07,1-3.12,2.92,0,5.85,0,8.78,0A1.42,1.42,0,0,0,103,9.21c.11-.43-.38-.59-.71-.57-2,0-4.09,0-6.14,0a2.17,2.17,0,0,1-2.06-1.34,2.92,2.92,0,0,1,.22-1.72c.4-1.16.78-2.32,1.18-3.48Z"/><path class="cls-1" d="M126.39.6H147a2,2,0,0,1,1.79.67,3.43,3.43,0,0,1,0,2.87q-1.67,4.77-3.35,9.55h-3.48c1-3,2.1-6.06,3.13-9.09.15-.33.05-.86-.4-.83-1.59,0-3.19,0-4.78,0a1.37,1.37,0,0,0-1.39,1c-1,3-2,5.95-3,8.93h-3.55c1-2.95,2-5.9,3-8.85.15-.39.16-1.12-.43-1.09q-2.4,0-4.8,0a1.33,1.33,0,0,0-1.2,1c-1.06,3-2.06,5.93-3.08,8.89-1.18,0-2.37,0-3.56,0,1.5-4.36,3-8.72,4.5-13.08Z"/><path class="cls-1" d="M152.26,1.06a3.52,3.52,0,0,1,2-.46c3.72,0,7.43,0,11.15,0-.35,1-.69,2.09-1,3.14-3,0-6.09,0-9.14,0a1.37,1.37,0,0,0-1.31,1.06c-1,3-2.07,5.91-3.1,8.87h-3.55c1.23-3.6,2.48-7.2,3.71-10.8a3.38,3.38,0,0,1,1.28-1.82Z"/><path class="cls-1" d="M167,.61c1.16,0,2.33,0,3.49,0-1,3-2.09,6-3.11,9.06-.17.35,0,.91.47.88,1.41,0,2.82,0,4.23,0a2.9,2.9,0,0,0,1.34-.2,2.19,2.19,0,0,0,.53-1c1-2.92,2.07-5.81,3-8.75,1.19,0,2.37,0,3.56,0-1.36,4-2.71,7.9-4.08,11.84a2,2,0,0,1-2.06,1.24h-9.2a1.91,1.91,0,0,1-1.84-.9c-.39-.86.05-1.78.29-2.62C164.76,7,165.84,3.78,167,.61Z"/><path class="cls-1" d="M181.63,2.06A2.73,2.73,0,0,1,184.35.6c3.67,0,7.34,0,11,0l-1.11,3.14c-3,0-6,0-8.93,0-.79-.07-1.54,1.19-.91,1.73,2.16.07,4.32,0,6.48,0a2.26,2.26,0,0,1,1.72.62,2.63,2.63,0,0,1,.24,2.56c-.46,1.16-.88,2.34-1.34,3.5a2.89,2.89,0,0,1-2.75,1.5H177.84c.35-1,.72-2.07,1-3.12,2.92,0,5.85,0,8.77,0a1.4,1.4,0,0,0,1.44-1.68,1.22,1.22,0,0,0-.87-.22c-2,0-4,0-6,0a2.1,2.1,0,0,1-2-1.34,2.72,2.72,0,0,1,.2-1.66c.41-1.19.79-2.38,1.21-3.56Z"/><path class="cls-1" d="M197.24.6h3.56c-.54,1.58-1.09,3.17-1.62,4.75h6.46c.55-1.58,1.14-3.15,1.63-4.75,1.18,0,2.36,0,3.54,0V.74c-1.59,4.29-3,8.64-4.57,12.94H202.7c.6-1.78,1.22-3.56,1.83-5.34-2.15,0-4.3,0-6.46,0-.7,1.75-1.22,3.57-1.85,5.35h-3.55c1.53-4.36,3-8.74,4.57-13.08Z"/><path class="cls-1" d="M82,5.21A10.84,10.84,0,0,0,76,.48,14.7,14.7,0,0,0,73.45,0H71.78C67.89.45,64,1.18,60.16,1.74a15.73,15.73,0,0,1-6.41-.13A7.25,7.25,0,0,0,58.05,4a1.85,1.85,0,0,1,1.66,1.55c0,.6-.63.77-1.09.77A2.65,2.65,0,0,1,57,5.66a24.41,24.41,0,0,0-5.1-3.32,15.91,15.91,0,0,0-9.53-.63c.93.51,1.87,1,2.8,1.49a37.16,37.16,0,0,0-9.88-.27c3.57,1,7.15,1.91,10.69,3a9.6,9.6,0,0,1,2.42,1,17.13,17.13,0,0,1-7.09.29c-5.9-1-10.84-4.89-16.71-6a18,18,0,0,0-8.12.28A28,28,0,0,1,26.58,4.25,34.36,34.36,0,0,1,31,7.3a11.47,11.47,0,0,0,6.34,2.34c4,.19,8-.5,12-1a11.45,11.45,0,0,1,4.25.13c1,.3.87,1.88.1,2.39a6.38,6.38,0,0,1-3,.65c-6.89.33-14-.39-20.32-3.41-3-1.27-5.85-2.91-9.09-3.37.91.87,1.84,1.71,2.77,2.56a17.57,17.57,0,0,0-7.53-.57A79.35,79.35,0,0,0,3.81,10c-1.27.4-2.56.73-3.81,1.17a11.69,11.69,0,0,0,4.59.51c2-.14,3.95-.36,5.93-.47a17.63,17.63,0,0,1,7.41,1.11c1.57.6,2.88,1.7,4.45,2.31a15.18,15.18,0,0,0,11,.24,6.68,6.68,0,0,1,1.85-.55,2.84,2.84,0,0,1,1.75.61.38.38,0,0,1,0,.61,6.88,6.88,0,0,1-2.15,1.07,18.54,18.54,0,0,1-11.57.94c2.22,1.77,5.21,2.09,8,2.09a32.64,32.64,0,0,0,12.31-2.71c2.69-1.18,5.35-2.41,8.13-3.36a9.15,9.15,0,0,1,3.5-.6c.51,0,1.14.28,1.25.84-.12.6-.77.87-1.26,1.13-2.95,1.27-6.19,1.75-9.06,3.22,3.41,0,6.82,0,10.23,0a41,41,0,0,1,11.8,2.29,14.51,14.51,0,0,0,4.68,1.08,9.54,9.54,0,0,0,6-1.79A11,11,0,0,0,83.42,13,11.1,11.1,0,0,0,82,5.21ZM78.34,17.79a8.61,8.61,0,0,1-13-3.39A8.71,8.71,0,0,1,71.75,2.24a8.6,8.6,0,0,1,6.71,1.7,8.74,8.74,0,0,1-.12,13.85Z"/><path class="cls-1" d="M110.21,2.31a2.59,2.59,0,0,1,2.46-1.7c3,0,6,0,9,0a1.69,1.69,0,0,1,1.78,1.08,5.56,5.56,0,0,1-.53,3.57c-.41,1.15-.81,2.31-1.22,3.46H111.63c-.14.42-.3.83-.4,1.26a.57.57,0,0,0,.66.58h9.24c-.36,1-.73,2.09-1.11,3.13h-9.64a4.08,4.08,0,0,1-2.84-.69,2.34,2.34,0,0,1-.16-2.42c.93-2.76,1.88-5.51,2.83-8.26Zm2.45,3.34h6.61a7.22,7.22,0,0,0,.42-1.42c0-.54-.69-.49-1.08-.5-1.53,0-3.06,0-4.58,0-.9.15-1.15,1.14-1.37,1.88Z"/><path class="cls-1" d="M71.55,4.13a6.85,6.85,0,0,1,7.6,3.34,7,7,0,0,1,.47,5.63A6.82,6.82,0,0,1,66.7,13,7.05,7.05,0,0,1,67,7.93a6.88,6.88,0,0,1,4.59-3.8ZM73.8,5.2a7,7,0,0,0-.82,1,5.79,5.79,0,0,1,4.53,4.72,6.1,6.1,0,0,1-1.06,4.42A5.78,5.78,0,0,0,73.8,5.2Z"/><path class="cls-1" d="M130.38,15.86h.69c-.08.26-.18.52-.26.79h-.7l.27-.79Z"/><path class="cls-1" d="M125.82,16.4l.86-.48-.51,1.48h.67l-.19.53L126,18a23.57,23.57,0,0,0-.92,3h.68l-.21.58c-.43,0-1,.13-1.24-.38a25.72,25.72,0,0,1,1-3.16h-.54c.07-.17.13-.35.19-.53h.54c.12-.33.23-.66.35-1Z"/><path class="cls-1" d="M200.74,21.46c.64-1.87,1.28-3.74,1.94-5.61h.69c-.24.7-.47,1.4-.73,2.1a2.09,2.09,0,0,1,1.9-.58.8.8,0,0,1,.45,1.05c-.29,1-.68,2-1,3h-.69c.34-1.08.82-2.13,1.07-3.24-.26-.61-1.13-.24-1.5.08-.82.85-1,2.11-1.4,3.17Z"/><path class="cls-1" d="M134.25,16.4l.87-.47-.51,1.47h.67l-.2.54h-.65a22.43,22.43,0,0,0-1,3h.69c-.08.19-.14.39-.21.58-.43,0-1.09.13-1.25-.41a29.24,29.24,0,0,1,1-3.13h-.54c.06-.17.13-.35.18-.53h.55c.11-.33.23-.66.34-1Z"/><path class="cls-1" d="M91.58,17.42a1.62,1.62,0,0,1,1.68.27,1.75,1.75,0,0,1,.26,1l-.67.07c-.06-.33-.15-.77-.56-.82-.88-.13-1.44.73-1.67,1.46-.16.51-.37,1.3.24,1.6s1.22-.46,1.52-1l.69.08a2.92,2.92,0,0,1-1.22,1.31A1.57,1.57,0,0,1,90,21.13a1.86,1.86,0,0,1-.16-1.58,2.86,2.86,0,0,1,1.73-2.13Z"/><path class="cls-1" d="M104,18a2,2,0,0,1,1.7-.67c.34.06.46.4.6.66a1.91,1.91,0,0,1,1.87-.62.75.75,0,0,1,.4,1c-.3,1-.7,2-1,3.07h-.7c.34-1.08.8-2.13,1.07-3.23-.19-.66-1.09-.22-1.42.11a11.67,11.67,0,0,0-1.32,3.12h-.7c.35-1.07.81-2.12,1.07-3.22-.12-.62-1-.26-1.26,0-.89.82-1,2.13-1.46,3.2h-.7c.46-1.35.93-2.7,1.4-4.05h.7L104,18Z"/><path class="cls-1" d="M149.39,18.59c.08-1.23,1.73-1.61,2.63-1,.33.23.35.66.4,1l-.66,0c0-1-1.75-1.07-1.69-.07.45.47,1.19.56,1.64,1.05a1.23,1.23,0,0,1-.63,1.71,2.13,2.13,0,0,1-2.23-.19c-.32-.27-.25-.71-.26-1.08l.68,0c-.23,1.15,1.74,1.34,1.88.29-.25-.85-1.8-.66-1.76-1.73Z"/><path class="cls-1" d="M160.7,18.15c.45-.51,1.1-1.08,1.82-.72l-.36.63a1.39,1.39,0,0,0-1.6.87,22.47,22.47,0,0,0-.95,2.52h-.67c.47-1.36.93-2.71,1.41-4.06H161l-.27.74Z"/><path class="cls-1" d="M171.43,18.59c0-1.65,3.16-1.8,3,0l-.66,0a.92.92,0,0,0-1.67-.39c-.18.46.4.6.68.77.53.24,1.24.58,1.09,1.29-.23,1.25-2,1.56-2.9.92-.41-.25-.38-.76-.37-1.17l.68,0c-.24,1.16,1.76,1.34,1.89.28-.28-.84-1.81-.66-1.77-1.72Z"/><path class="cls-1" d="M191.47,18.17c.44-.53,1.11-1.11,1.83-.72l-.36.61a1.35,1.35,0,0,0-1.57.83,17.84,17.84,0,0,0-1,2.55l-.68,0c.46-1.35.94-2.7,1.4-4.05h.63c-.1.26-.18.51-.28.77Z"/><path class="cls-1" d="M196.77,17.42a1.71,1.71,0,0,1,1.61.19,1.43,1.43,0,0,1,.33,1l-.66.07c-.05-.37-.21-.85-.68-.83-.86,0-1.36.84-1.58,1.56-.15.49-.31,1.24.28,1.51s1.21-.46,1.52-1l.68.09a3,3,0,0,1-1.19,1.28,1.58,1.58,0,0,1-1.84-.19,1.82,1.82,0,0,1-.18-1.64,2.85,2.85,0,0,1,1.71-2.09Z"/><path class="cls-1" d="M128.44,21.46c.47-1.36.93-2.72,1.42-4.06h.68c-.46,1.35-.93,2.7-1.4,4Z"/><path class="cls-1" d="M144.9,17.41h.61c-.08.25-.17.49-.26.74.46-.51,1.09-1.07,1.82-.73l-.35.64a1.34,1.34,0,0,0-1.57.82,19.61,19.61,0,0,0-1,2.58h-.67l1.41-4Z"/><path class="cls-1" d="M97.81,17.39a1.53,1.53,0,0,1,1.94.73,2.81,2.81,0,0,1-2.42,3.43,1.33,1.33,0,0,1-1.45-1.05,3,3,0,0,1,1.93-3.11Zm.17.51a2.42,2.42,0,0,0-1.4,2.44.86.86,0,0,0,1.32.54,2.56,2.56,0,0,0,1.23-2.29A.84.84,0,0,0,98,17.9Z"/><path class="cls-1" d="M112.7,17.91a1.78,1.78,0,0,1,1.76-.51c.69.26.75,1.13.61,1.75a2.85,2.85,0,0,1-2.2,2.39c-.51.09-.86-.3-1.15-.64-.23.7-.46,1.41-.73,2.1h-.7c.68-1.86,1.29-3.73,2-5.6h.64c0,.13-.14.38-.19.5Zm.65,0a2.69,2.69,0,0,0-1.27,2.38c0,.62.85.82,1.29.47a2.83,2.83,0,0,0,1-2.22.74.74,0,0,0-1.07-.63Z"/><path class="cls-1" d="M118.27,18.59a2.24,2.24,0,0,1,2.8-1.11c.77.42.66,1.42.47,2.13-1,0-2,0-3,0,0,.47-.05,1.14.51,1.31a1.61,1.61,0,0,0,1.58-.86l.69.07a2.27,2.27,0,0,1-2.92,1.19c-.91-.63-.6-1.95-.1-2.75Zm.46.47c.76,0,1.53,0,2.29,0,0-.43,0-1-.5-1.17-.81-.22-1.47.5-1.79,1.16Z"/><path class="cls-1" d="M139.22,17.38a1.52,1.52,0,0,1,1.89.72,2.77,2.77,0,0,1-2.55,3.44,1.3,1.3,0,0,1-1.34-1.21,3,3,0,0,1,2-2.95Zm0,.57a2.5,2.5,0,0,0-1.28,2.38.83.83,0,0,0,1.18.6,2.48,2.48,0,0,0,1.38-2.34.86.86,0,0,0-1.28-.64Z"/><path class="cls-1" d="M165,18.05a2,2,0,0,1,2.53-.48c.64.47.49,1.36.34,2-1,0-2,0-3,0,0,.47-.08,1.15.5,1.32a1.64,1.64,0,0,0,1.58-.86l.67.07c-.54,1.08-2.08,1.92-3.13,1-.76-.94-.2-2.32.52-3.12Zm.06,1c.76,0,1.53,0,2.29,0,0-.44,0-1-.5-1.17-.81-.21-1.47.5-1.79,1.16Z"/><path class="cls-1" d="M178.77,17.41a1.58,1.58,0,0,1,1.78.41,2.19,2.19,0,0,1,.08,1.79h-3c0,.46-.1,1.07.41,1.3.69.24,1.29-.32,1.67-.84l.67.08a2.6,2.6,0,0,1-2,1.39,1.3,1.3,0,0,1-1.48-1,3,3,0,0,1,1.84-3.13Zm-.94,1.65c.77,0,1.54,0,2.3,0,0-.41,0-1-.45-1.14-.82-.27-1.52.46-1.85,1.14Z"/><path class="cls-1" d="M184,18.55a2.21,2.21,0,0,1,1.89-1.23c.6-.06,1.49.16,1.52.89-.1,1.12-.85,2.1-.8,3.25h-.67l0-.46a2.32,2.32,0,0,1-1.71.52,1,1,0,0,1-.8-1.21,1.52,1.52,0,0,1,1.36-1.19c.62-.08,1.24-.09,1.85-.2,0-.3.26-.75-.12-.91a1.42,1.42,0,0,0-1.8.61l-.68-.07Zm.56,1.18c-.57.17-.71,1.2,0,1.26.95.14,1.59-.74,1.84-1.54a12.37,12.37,0,0,0-1.84.28Z"/></g></g></svg>