<svg width="48" height="48" viewBox="0 0 48 48" fill="none" xmlns="http://www.w3.org/2000/svg">
<path fill-rule="evenodd" clip-rule="evenodd" d="M39.5432 16.1773C39.5568 16.527 39.5613 16.8767 39.5613 17.2264C39.5613 27.8308 32.1016 40.073 18.4605 40.073C14.2701 40.073 10.3737 38.7375 7.09082 36.464C7.67114 36.5276 8.2605 36.5754 8.8589 36.5754C12.3333 36.5754 15.5333 35.2873 18.0716 33.1251C14.8264 33.0774 12.0861 30.7403 11.141 27.5606C11.5947 27.656 12.0619 27.7038 12.5397 27.7038C13.2135 27.7038 13.8677 27.6085 14.4947 27.4177C11.0987 26.6864 8.54086 23.4431 8.54086 19.548C8.54086 19.5003 8.54086 19.4843 8.54086 19.4525C9.54172 20.0407 10.6873 20.4062 11.9037 20.4539C9.91099 19.0071 8.60112 16.5429 8.60112 13.7606C8.60112 12.298 8.96589 10.9147 9.60801 9.72232C13.2647 14.5873 18.7318 17.783 24.8952 18.1169C24.7686 17.5286 24.7038 16.9087 24.7038 16.2887C24.7038 11.8529 28.0244 8.25977 32.1212 8.25977C34.2541 8.25977 36.1804 9.22972 37.5325 10.7878C39.2252 10.438 40.8109 9.77032 42.2459 8.8482C41.6897 10.7242 40.5154 12.2979 38.981 13.2836C40.4823 13.0928 41.9143 12.6639 43.2422 12.0279C42.2459 13.6337 40.9918 15.0485 39.5432 16.1773Z" fill="#1EA1F2"/>
</svg>
