<svg xmlns="http://www.w3.org/2000/svg" viewBox="0 0 172.56 35"><defs><style>.cls-1{fill:#ff004f;}.cls-2{fill:#00f2ea;}.cls-3{fill:#828282;}</style></defs><g id="Capa_2" data-name="Capa 2"><g id="Layer_1" data-name="Layer 1"><path class="cls-1" d="M23,12.63a13.72,13.72,0,0,0,8,2.57V9.45a7.93,7.93,0,0,1-1.68-.18V13.8a13.72,13.72,0,0,1-8-2.57V23A10.64,10.64,0,0,1,4.71,31.8,10.64,10.64,0,0,0,23,24.37V12.63ZM25,6.83A8.08,8.08,0,0,1,23,2.14V1.4H21.36A8,8,0,0,0,25,6.83ZM8.43,27.3a4.87,4.87,0,0,1,3.87-7.81,5,5,0,0,1,1.48.23V13.84a10.53,10.53,0,0,0-1.68-.1v4.58a5,5,0,0,0-1.48-.23A4.86,4.86,0,0,0,8.43,27.3Z"/><path d="M21.27,11.23a13.72,13.72,0,0,0,8,2.57V9.27A8,8,0,0,1,25,6.83,8,8,0,0,1,21.36,1.4H17.17v23A4.87,4.87,0,0,1,8.43,27.3a4.86,4.86,0,0,1,2.19-9.21,4.76,4.76,0,0,1,1.47.23V13.74A10.62,10.62,0,0,0,4.72,31.8,10.63,10.63,0,0,0,21.27,23V11.23Z"/><path class="cls-2" d="M29.29,9.27V8.05A8,8,0,0,1,25,6.83,8,8,0,0,0,29.29,9.27ZM21.36,1.4q-.06-.33-.09-.66V0H15.48V23a4.86,4.86,0,0,1-7,4.33,4.87,4.87,0,0,0,8.74-2.93V1.4ZM12.1,13.74v-1.3a10.34,10.34,0,0,0-1.46-.1A10.63,10.63,0,0,0,4.72,31.8,10.62,10.62,0,0,1,12.1,13.74Z"/><path class="cls-1" d="M96.35,28.79a7.55,7.55,0,1,0,0-15.1H95.2a7.55,7.55,0,1,1,0,15.1Z"/><path class="cls-2" d="M95.1,13.69H94a7.55,7.55,0,1,0,0,15.1H95.1a7.55,7.55,0,1,1,0-15.1Z"/><path d="M37.24,10.28V14.1h4.49V28.68h4.48V14.21h3.65l1.25-3.93Zm36.7,0V14.1h4.48V28.68H82.9V14.21h3.65l1.25-3.93Zm-22,2.17a2.19,2.19,0,1,1,2.19,2.17A2.18,2.18,0,0,1,51.94,12.45Zm0,3.72h4.38V28.68H51.94Zm6.26-5.89v18.4h4.38V23.93l1.35-1.24,4.27,6.1h4.69l-6.15-8.9,5.53-5.37H67l-4.37,4.34V10.28Zm47.22,0v18.4h4.38V23.93l1.35-1.24,4.28,6.1h4.69L114,19.89l5.52-5.37h-5.31l-4.38,4.34V10.28Z"/><path d="M95.2,28.79a7.55,7.55,0,1,0,0-15.1h-.1a7.55,7.55,0,1,0,0,15.1Zm-3.75-7.55a3.7,3.7,0,1,1,3.7,3.67A3.69,3.69,0,0,1,91.45,21.24Z"/><path class="cls-3" d="M143.39,29.53h1.72L138.2,9.67h-2.6l-6.92,19.86h1.73l1.86-5.21h9.24Zm-6.51-18.84,4.1,12.1H132.8Zm11.28,15.12c0,2.63,1.28,4,4.11,4a8.33,8.33,0,0,0,4.9-1.67l.09,1.37h1.58V8.84l-1.73.23v6.12a21.59,21.59,0,0,0-4.47-.47c-3.29,0-4.48,1.81-4.48,4.47Zm9,.62a7.42,7.42,0,0,1-4.71,1.85c-2,0-2.51-.8-2.51-2.47V19.19c0-2,.78-2.92,2.68-2.92a22.51,22.51,0,0,1,4.54.5Zm15.45-.56c0-2.71-.23-3.4-4.51-4.47-2.67-.69-2.8-.9-2.8-2.9,0-1.58.36-2.23,2.89-2.23a22,22,0,0,1,4.06.42l.18-1.47a16.32,16.32,0,0,0-4.12-.5c-3.57,0-4.73,1.3-4.73,3.72,0,2.66.29,3.55,3.93,4.42,3.32.77,3.37,1,3.37,3.07,0,1.84-.54,2.35-3.22,2.35a14.55,14.55,0,0,1-3.85-.59l-.3,1.4a12.62,12.62,0,0,0,4.27.74C171.61,29.83,172.56,28.49,172.56,25.87Z"/></g></g></svg>