<svg width="48" height="49" viewBox="0 0 48 49" fill="none" xmlns="http://www.w3.org/2000/svg">
<path fill-rule="evenodd" clip-rule="evenodd" d="M39.5435 16.6773C39.5571 17.027 39.5616 17.3767 39.5616 17.7264C39.5616 28.3308 32.1019 40.573 18.4607 40.573C14.2704 40.573 10.374 39.2375 7.09106 36.964C7.67138 37.0276 8.26074 37.0754 8.85915 37.0754C12.3335 37.0754 15.5335 35.7873 18.0718 33.6251C14.8266 33.5774 12.0863 31.2403 11.1412 28.0606C11.5949 28.156 12.0622 28.2038 12.54 28.2038C13.2138 28.2038 13.8679 28.1085 14.495 27.9177C11.099 27.1864 8.54111 23.9431 8.54111 20.048C8.54111 20.0003 8.54111 19.9843 8.54111 19.9525C9.54196 20.5407 10.6875 20.9062 11.9039 20.9539C9.91124 19.5071 8.60137 17.0429 8.60137 14.2606C8.60137 12.798 8.96613 11.4147 9.60825 10.2223C13.265 15.0873 18.7321 18.283 24.8955 18.6169C24.7688 18.0286 24.704 17.4087 24.704 16.7887C24.704 12.3529 28.0246 8.75977 32.1215 8.75977C34.2543 8.75977 36.1807 9.72972 37.5327 11.2878C39.2254 10.938 40.8111 10.2703 42.2461 9.3482C41.6899 11.2242 40.5157 12.7979 38.9812 13.7836C40.4825 13.5928 41.9145 13.1639 43.2424 12.5279C42.2461 14.1337 40.992 15.5485 39.5435 16.6773Z" fill="#1EA1F2"/>
</svg>
