<svg xmlns="http://www.w3.org/2000/svg" viewBox="0 0 114.77 41.74"><defs><style>.cls-1{fill:#f71963;}</style></defs><g id="Capa_2" data-name="Capa 2"><g id="Layer_1" data-name="Layer 1"><path class="cls-1" d="M45.17,0H8.71A3.74,3.74,0,0,0,5.4,5.5L9,12.41H2.43A2.43,2.43,0,0,0,.28,16L12,38.18a2.43,2.43,0,0,0,4.3,0l3.18-6,4,7.57a3.75,3.75,0,0,0,6.63,0L48.39,5.36A3.64,3.64,0,0,0,45.17,0ZM28.79,14.69,20.91,29.52a1.63,1.63,0,0,1-2.19.68,1.69,1.69,0,0,1-.67-.68l-7.8-14.76a1.62,1.62,0,0,1,.67-2.19,1.52,1.52,0,0,1,.75-.19H27.4a1.56,1.56,0,0,1,1.39,2.31ZM84,16H80V29.62a.47.47,0,0,1-.47.47H76.41a.48.48,0,0,1-.47-.47V16h-4a.45.45,0,0,1-.47-.43h0V13.09a.46.46,0,0,1,.46-.45H84a.47.47,0,0,1,.49.45v2.42A.46.46,0,0,1,84,16Zm12.8,14A30.11,30.11,0,0,1,92,30.3c-3,0-5.7-.78-5.7-5.05v-7.8c0-4.27,2.7-5,5.72-5a31.61,31.61,0,0,1,4.72.3c.33,0,.47.17.47.47v2.19a.47.47,0,0,1-.47.47h-5c-1.1,0-1.5.37-1.5,1.6v2.13h6.26a.47.47,0,0,1,.47.47v2.23a.47.47,0,0,1-.47.47H90.3v2.49c0,1.22.4,1.6,1.5,1.6h5a.47.47,0,0,1,.47.47V29.5c0,.3-.14.45-.47.49Zm17.71.1h-3.73a.63.63,0,0,1-.61-.36l-3.23-5.13-2.94,5c-.16.28-.33.47-.58.47H99.89a.31.31,0,0,1-.35-.3.48.48,0,0,1,0-.17l5.08-8.48-5.13-8a.27.27,0,0,1-.05-.14.34.34,0,0,1,.35-.31h3.78c.26,0,.45.24.59.45l3,4.74,2.91-4.74a.74.74,0,0,1,.58-.45h3.47a.35.35,0,0,1,.36.31.39.39,0,0,1,0,.14l-5.11,8.1,5.33,8.43a.48.48,0,0,1,.07.24C114.77,30,114.65,30.09,114.46,30.09ZM65.84,12.69a.36.36,0,0,0-.36.29L62.07,25.6c0,.25-.11.35-.33.35s-.28-.1-.32-.35L58,13a.35.35,0,0,0-.35-.29H54.3a.36.36,0,0,0-.37.36s0,0,0,.08S58.1,27.6,58.15,27.74a3.54,3.54,0,0,0,3.62,2.55,3.66,3.66,0,0,0,3.62-2.55c.06-.19,4.13-14.61,4.13-14.61a.35.35,0,0,0-.27-.43H65.84Z"/><path class="cls-1" d="M45.17,0H8.71A3.74,3.74,0,0,0,5.4,5.5L9,12.41H2.43A2.43,2.43,0,0,0,.28,16L12,38.18a2.43,2.43,0,0,0,4.3,0l3.18-6,4,7.57a3.75,3.75,0,0,0,6.63,0L48.39,5.36A3.64,3.64,0,0,0,45.17,0ZM28.79,14.69,20.91,29.52a1.63,1.63,0,0,1-2.19.68,1.69,1.69,0,0,1-.67-.68l-7.8-14.76a1.62,1.62,0,0,1,.67-2.19,1.52,1.52,0,0,1,.75-.19H27.4a1.56,1.56,0,0,1,1.39,2.31Z"/></g></g></svg>