<svg xmlns="http://www.w3.org/2000/svg" viewBox="0 0 190.24 38.38"><defs><style>.cls-1{fill:#9c5c8f;}.cls-1,.cls-2,.cls-3{fill-rule:evenodd;}.cls-2{fill:#fff;}</style></defs><g id="Capa_2" data-name="Capa 2"><g id="Layer_1" data-name="Layer 1"><path class="cls-1" d="M.48,3.65A6,6,0,0,1,5.9,0H58.33a6,6,0,0,1,6.12,6.13c0,6.7,0,13.4,0,20.1A6,6,0,0,1,58.76,32c-6.37,0-12.75,0-19.12,0l2.58,6.33c-3.8-2.09-7.55-4.26-11.37-6.3-8.39-.08-16.78,0-25.16,0A6,6,0,0,1,0,26.23C0,19.67,0,13.11,0,6.55a6.69,6.69,0,0,1,.48-2.9Z"/><path class="cls-2" d="M26.11,4.14a2.32,2.32,0,0,1,3.52.47,2.19,2.19,0,0,1,.11,2.08,30.22,30.22,0,0,0-2.43,8.5,54.3,54.3,0,0,0-.92,11.45A2.22,2.22,0,0,1,24.92,29,2.73,2.73,0,0,1,22.4,27.9c-2.86-3.07-4.47-7-5.64-11-1.17,2.32-2.35,4.65-3.5,7a16.32,16.32,0,0,1-2.92,4.45c-.53.54-1.45,1-2.14.47-1-.91-1.31-2.37-1.75-3.62A153.27,153.27,0,0,1,2.83,7.41,2.24,2.24,0,0,1,4,4.83a2.51,2.51,0,0,1,2.5.25,2.68,2.68,0,0,1,.7,1.68C7.91,11.38,8.73,16,9.84,20.51q2.87-5.43,5.71-10.87a3.51,3.51,0,0,1,1.14-1.39A1.87,1.87,0,0,1,19,8.46a3.71,3.71,0,0,1,.79,1.9,48.09,48.09,0,0,0,2.45,8.8A50.09,50.09,0,0,1,24.88,6.51a9.36,9.36,0,0,1,1.23-2.37ZM36.84,6.43a6.6,6.6,0,0,1,5.67,2,8.7,8.7,0,0,1,2,4.66,14.3,14.3,0,0,1-1.57,8.49,9.36,9.36,0,0,1-3.27,3.73,6.73,6.73,0,0,1-7.05-.23,7.73,7.73,0,0,1-2.95-5A13.62,13.62,0,0,1,33.49,7.94a6.34,6.34,0,0,1,3.35-1.51Zm.43,4.46A4.39,4.39,0,0,0,35.13,13a7.87,7.87,0,0,0-.65,7.29,2.19,2.19,0,0,0,1.45,1.39,2.56,2.56,0,0,0,2-.78,7.11,7.11,0,0,0,2.12-4.14,6.94,6.94,0,0,0-.87-5.19,1.67,1.67,0,0,0-1.92-.64ZM53.33,6.44A6.64,6.64,0,0,1,58.92,8.3a8.67,8.67,0,0,1,2.13,5,14.3,14.3,0,0,1-1.55,8.2,9.41,9.41,0,0,1-3.35,3.83,6.74,6.74,0,0,1-6.77-.09,7,7,0,0,1-2.81-3.72A13.58,13.58,0,0,1,49.66,8.26a6.42,6.42,0,0,1,3.67-1.82Zm.43,4.45a4.91,4.91,0,0,0-2.28,2.35,7.81,7.81,0,0,0-.42,7.14,2,2,0,0,0,1.56,1.28,3,3,0,0,0,2.07-1,7.56,7.56,0,0,0,2-4.59,6.55,6.55,0,0,0-1-4.55,1.68,1.68,0,0,0-1.93-.62Z"/><path class="cls-3" d="M75.31,7a12.18,12.18,0,0,1,5.34.07c0,1.43,0,2.86,0,4.28a6.64,6.64,0,0,0-4.42,0,5,5,0,0,0-2.58,4.48,5.25,5.25,0,0,0,2.09,4.79c1.45,1,3.31.76,4.91.3v4.29A10.44,10.44,0,0,1,74.16,25,8.68,8.68,0,0,1,69,19.4a11.7,11.7,0,0,1-.19-6A8.82,8.82,0,0,1,75.31,7Zm12.88-.21a8.51,8.51,0,0,1,6.24,1.47,8.28,8.28,0,0,1,2.81,5.46,15.65,15.65,0,0,1-.46,6.77,7.2,7.2,0,0,1-3.62,4.39,9.11,9.11,0,0,1-5.85.47,6.56,6.56,0,0,1-4.26-3.18A13.37,13.37,0,0,1,81.7,15a9.6,9.6,0,0,1,2-5.91,6.81,6.81,0,0,1,4.45-2.31Zm.66,4.09a2.62,2.62,0,0,0-1.68,2,16.11,16.11,0,0,0-.27,5.23,4.78,4.78,0,0,0,.89,2.72,2.38,2.38,0,0,0,3.49-.16,4.74,4.74,0,0,0,.81-2.36,16.35,16.35,0,0,0,0-4.42,4.5,4.5,0,0,0-1-2.46,2.29,2.29,0,0,0-2.19-.56ZM173.42,7.1a12.09,12.09,0,0,1,5.61,0c0,1.43,0,2.86,0,4.29a6.8,6.8,0,0,0-4.32,0,4.86,4.86,0,0,0-2.66,4.1c-.19,1.89.33,4.07,2,5.17,1.46,1,3.36.81,5,.34,0,1.44,0,2.88,0,4.32a10.66,10.66,0,0,1-6.85-.43,8.76,8.76,0,0,1-4.87-5.63,11.68,11.68,0,0,1-.1-5.87,8.81,8.81,0,0,1,6.23-6.24Zm-73.33.15h6.12c.73,3.3,1.44,6.62,2.05,10,.58-3.35,1.37-6.65,2.15-9.95h6.28q1.22,9,2.42,18h-4.8c-.44-4.1-.83-8.2-1.3-12.3-1,4.1-2,8.2-3,12.3h-3.28c-1-4.11-2.07-8.22-3.13-12.32Q103,19,102.38,25.2H97.8q1.14-9,2.29-17.95Zm21.94,0h6.12c.74,3.3,1.43,6.61,2,9.94.59-3.34,1.37-6.65,2.16-10h6.25q1.21,9,2.42,18h-4.79c-.45-4.1-.86-8.2-1.3-12.3-1,4.1-2,8.2-3,12.3H128.7q-1.57-6.16-3.13-12.33-.63,6.17-1.24,12.33h-4.59q1.14-9,2.29-18Zm20.37.06c3.27-.07,6.55,0,9.83,0,0,1.28,0,2.55,0,3.82-1.65,0-3.3,0-5,0v3.29h4.3v3.72h-4.3V21.4h5c0,1.28,0,2.55,0,3.82-3.27,0-6.55,0-9.82,0,0-6,0-11.95,0-17.92Zm11.24-.06c2.05,0,4.1,0,6.15,0a8.16,8.16,0,0,1,5.43,1.91A4.85,4.85,0,0,1,166.46,14a5,5,0,0,1-2.71,3.08c1.29,2.7,2.58,5.38,3.86,8.08H162.5c-1.34-2.75-2.63-5.52-4-8.26,0,2.75,0,5.5,0,8.26h-4.86v-18Zm4.83,3.46V15a4.82,4.82,0,0,0,2.58-.63,2,2,0,0,0,.22-2.74c-.67-.82-1.83-.84-2.8-.91Zm21.94-3.45h9.81v3.83h-5v3.28h4.29v3.72h-4.29c0,1.1,0,2.19,0,3.29h5V25.2h-9.83c0-6,0-12,0-17.95Z"/></g></g></svg>