<svg xmlns="http://www.w3.org/2000/svg" viewBox="0 0 180.9 40.8"><defs><style>.cls-1{fill:#fff;}.cls-2{fill:#001d7e;}</style></defs><g id="Capa_2" data-name="Capa 2"><g id="Layer_1" data-name="Layer 1"><path d="M19.73,0h1.49Q28,0,34.45,5.53A20.7,20.7,0,0,1,40.8,20.4q0,9.5-8,16.21A21,21,0,0,1,20.32,40.8Q11.59,40.8,5,33.85c-3.34-4.14-5-8.34-5-12.63V19.73q0-7.62,6.28-14.2A9,9,0,0,0,7.85,4.18,20.38,20.38,0,0,1,19.73,0Z"/><path class="cls-1" d="M1,20.4A19.44,19.44,0,0,0,20.25,39.75h.22q8.9,0,15.17-7.47a19,19,0,0,0,4.11-11.81v-.22A19.39,19.39,0,0,0,20.32,1q-9,0-15.16,7.4A19.33,19.33,0,0,0,1,20.4Z"/><path d="M4.33,13.23h.15l8.3,22.86H12.7A17.46,17.46,0,0,1,4.56,28a18.83,18.83,0,0,1-1.72-7.7A18.8,18.8,0,0,1,4.33,13.23Z"/><path d="M20.4,2.84A17.17,17.17,0,0,1,32.21,7.47v.08L32,7.47c-1.39,0-2.37.85-2.91,2.54v.68c0,1,.69,2.54,2.09,4.63a9.23,9.23,0,0,1,1.05,4.33c0,1.3-.63,3.71-1.87,7.25L29.14,31a46.56,46.56,0,0,1-1.94-5.6L22.72,12.1h.07c1.74,0,2.62-.22,2.62-.67v-.22a.74.74,0,0,0-.53-.6L20,10.83l-4.94-.22a.72.72,0,0,0-.37.67h-.07c0,.55.72.82,2.16.82l.38.08,2.69,7.55L16.07,31.16H16l-6.35-19V12.1h.07c1.7,0,2.54-.19,2.54-.59v-.23a.72.72,0,0,0-.52-.67l-5.68.22h-.3v-.14A18.69,18.69,0,0,1,9.27,6.8,17.48,17.48,0,0,1,20.4,2.84Z"/><path d="M20.62,21.82a48.69,48.69,0,0,1,2.1,5.6l3.51,9.49h-.08a18.23,18.23,0,0,1-5.83,1,15.94,15.94,0,0,1-4.93-.74Z"/><path d="M35.64,12h.15a18.63,18.63,0,0,1,2.09,8.44,17.34,17.34,0,0,1-6,13.15,19.56,19.56,0,0,1-2.69,1.94h-.08v-.07l6.13-17.86a16.42,16.42,0,0,0,.52-3.81Z"/><path class="cls-2" d="M42.37,10.61h8.81v.9H51c-1.49,0-2.24.42-2.24,1.27a71.72,71.72,0,0,0,2.54,8.29l.37,1.27h.08l4-11.73h.82L60.3,22.34h.08q3.06-8.89,3.06-9.64c0-.79-.75-1.19-2.24-1.19H61v-.9h7.48v.9h-.3c-1.65,0-2.69.62-3.14,1.87q-.45.81-5.08,15.09h-.68L55.37,16.36h-.15l-4,12.11h-.67q-3.51-11.13-4.93-15.09a3,3,0,0,0-3.07-1.87h-.22Z"/><rect x="45.58" y="31.01" width="135.32" height="0.6"/><path class="cls-2" d="M73.83,14.05a8.07,8.07,0,0,1,7,3.88,6.83,6.83,0,0,1,.9,3.29,6.71,6.71,0,0,1-2.32,5,8.16,8.16,0,0,1-5.38,2.09h-.67q-3.88,0-6.65-3.74a7.84,7.84,0,0,1-.9-3.36q0-4.56,5.16-6.72A11.61,11.61,0,0,1,73.83,14.05Z"/><path class="cls-1" d="M68.89,21.15q0,4.34,3.52,5.68l1.12.14h.37c2.34,0,3.89-1.34,4.63-4l.15-1.87c0-2.54-1-4.31-3-5.3a3.57,3.57,0,0,0-1.64-.38h-.52c-2,0-3.49,1.25-4.34,3.74Z"/><path class="cls-2" d="M82.34,14.57h6.51c3.23,0,5.13.95,5.67,2.84a1.85,1.85,0,0,1,.15.82v.45q0,2.54-3.58,3.51H91q4,4.71,5.83,4.71l.45.07h.45c1.29,0,1.94-.79,1.94-2.39v-6.2c0-1.94-.52-2.91-1.57-2.91l-1-.08v-.82h6.5q6.94,0,8.44,4.48a10.51,10.51,0,0,1,.3,2.17q0,4.49-4.63,6.13a9.84,9.84,0,0,1-3,.45h-12q-.37-.3-3.81-4.71l-.67-.75h-.53v2.17c0,1.64.63,2.46,1.87,2.46h.67v.83H82.34V27h.6q1.8,0,1.8-1.41c.09,0,.14-.43.14-1.28v-6.2c0-1.49-.27-2.24-.67-2.24,0-.25-.67-.4-1.87-.45Z"/><path class="cls-1" d="M87.72,15.84V21h2a2.13,2.13,0,0,0,1.94-1.5,2.73,2.73,0,0,0,.22-1A2.45,2.45,0,0,0,90.19,16l-1-.15Z"/><path class="cls-1" d="M102.44,15.84V23c0,2.2.18,3.29.53,3.29a1.43,1.43,0,0,0,1,.23h.37c3.24,0,4.86-1.8,4.86-5.38s-1.64-5.31-4.93-5.31Z"/><path d="M113,10.61h7.62c3.79,0,6.05,1.2,6.8,3.59l.15,1V16a4.23,4.23,0,0,1-2.24,3.51,7.8,7.8,0,0,1-4,1H119v2.92c0,1.84.38,2.94,1.12,3.29a6.13,6.13,0,0,0,1.95.29v.83H113V27h.08c1.39,0,2.24-.29,2.54-.89a7,7,0,0,0,.52-3.36v-7c0-2.14-.3-3.39-.9-3.73a3.26,3.26,0,0,0-1.94-.45H113Z"/><path class="cls-1" d="M119,12.1v6.81h2.47c1.74,0,2.71-1.08,2.91-3.22v-.22A3.08,3.08,0,0,0,122,12.18l-1.2-.08Z"/><path d="M128.45,14.57H135c3.29,0,5.2,1,5.75,3l.08.82v.23c0,1.79-1.22,3-3.66,3.58,2.59,3.19,4.65,4.78,6.2,4.78,1.24,0,1.87-.87,1.87-2.61V18.61c0-2.05-.45-3.07-1.35-3.07a4.16,4.16,0,0,0-1.27-.15v-.82H154.3l.3,3.81h-.75c-.3-1.34-.62-2-1-2-.25-.34-1.22-.52-2.91-.52h-2v4.34h.9q2.31,0,2.31-1.35l.08-1h.82v6h-.82c0-1.45-.4-2.17-1.2-2.17,0-.1-.42-.15-1.27-.15H148v1.2c0,2.29.25,3.43.75,3.43,0,.2.52.33,1.57.38h.89c1.75,0,2.74-.33,3-1l.6-1.5h.6l-.23,3.74H138.68q0-.15-4.33-5.46h-.6v.23c0,2.64.25,4,.75,4,0,.2.45.33,1.35.37h.52v.83h-7.92V27h.45a2,2,0,0,0,1.79-.74,8.23,8.23,0,0,0,.3-2.39V18.53q0-3.06-1.5-3.06l-1-.08Z"/><path class="cls-1" d="M133.75,15.84V21h2a2.06,2.06,0,0,0,1.87-1.35,1.86,1.86,0,0,0,.22-1v-.45c-.2-1.54-.89-2.31-2.09-2.31l-.52-.08Z"/><path d="M166.41,14.05v4.78h-.9c-.45-2.29-1.59-3.44-3.44-3.44-1.34.25-2,.73-2,1.42v.3q0,1.35,4,2.92c2.34,1.09,3.51,2.44,3.51,4q0,3-3.43,4.11l-1.28.15h-.44a5.8,5.8,0,0,1-3.29-1.27,3.15,3.15,0,0,0-.6,1.27h-.82V22.79h.9a4.43,4.43,0,0,0,2.24,3.66,5.54,5.54,0,0,0,2.24.52c1.44-.19,2.17-.79,2.17-1.79V25q0-1.63-4.79-3.51-2.76-1.5-2.76-3.81,0-2.54,3-3.44l1-.15h.3a4.81,4.81,0,0,1,3,1c.15,0,.33-.34.52-1Z"/><path d="M178.59,14.05v4.78h-.83c-.09,0-.19-.35-.29-1a3.33,3.33,0,0,0-3.22-2.39c-1.34.25-2,.73-2,1.42v.3q0,1.35,3.73,2.77c2.54,1.14,3.81,2.54,3.81,4.18,0,2-1.14,3.36-3.44,4.11l-1.27.15h-.44a5.8,5.8,0,0,1-3.29-1.27h-.08a4,4,0,0,0-.52,1.27h-.82V22.79h.9v.08a4.39,4.39,0,0,0,2.24,3.58,5.54,5.54,0,0,0,2.24.52c1.44-.19,2.17-.82,2.17-1.86S176,22.82,173,21.67q-3.06-1.5-3.06-4v-.15q0-2.31,3-3.29l1-.15h.3a4.81,4.81,0,0,1,3,1c.1,0,.28-.34.52-1Z"/></g></g></svg>