<svg xmlns="http://www.w3.org/2000/svg" viewBox="0 0 187.87 30"><defs><style>.cls-1{fill:#c23925;}.cls-2{fill:#292a27;}.cls-3{fill:#fff;}.cls-4{fill:#828282;}</style></defs><g id="Capa_2" data-name="Capa 2"><g id="Layer_1" data-name="Layer 1"><path class="cls-1" d="M28.55,0c.18.25.44.12.66.13,2.52.11,5,.2,7.54.51,3.38.42,5.1,2,5.6,5.41A65.23,65.23,0,0,1,42.8,19.3a38,38,0,0,1-.56,5.22,5.47,5.47,0,0,1-5.13,4.81A133,133,0,0,1,23,30q-7.23.07-14.46-.4a27.58,27.58,0,0,1-3.26-.38A5.39,5.39,0,0,1,.8,24.88a40.54,40.54,0,0,1-.66-5.6c0-.2.11-.45-.14-.6V11.32c.25-.15.12-.4.14-.6.13-1.65.24-3.31.52-5A5.64,5.64,0,0,1,6,.64C8.48.33,11,.26,13.42.13c.22,0,.48.13.66-.13ZM17.25,8.61V21.39L28.37,15Z"/><path class="cls-2" d="M134.73,23.55c-.25.19-.12.49-.17.73A4.25,4.25,0,0,1,131,27.91a7.76,7.76,0,0,1-3.77-.06A4.6,4.6,0,0,1,124,24.09a9.71,9.71,0,0,1-.33-2c-.08-3.12-.38-6.27.32-9.36.62-2.72,2.15-3.94,5-4.07a8.67,8.67,0,0,1,1.84.08,4.23,4.23,0,0,1,3.73,3.84,3,3,0,0,0,.26,1.24v6.05L128,19.82c-.2,0-.33.05-.32.29a19.7,19.7,0,0,0,.25,4.06,1.28,1.28,0,0,0,1.36,1.09,1.34,1.34,0,0,0,1.42-1,5.35,5.35,0,0,0,.25-1.68c0-.35.05-.52.47-.49,1,.09,1.92.14,2.88.16.25,0,.32.17.46.27Zm-7.09-8.32c0,.52,0,1.13,0,1.74,0,.25,0,.41.35.4.81,0,1.62,0,2.43,0,.18,0,.35,0,.34-.27a23.54,23.54,0,0,0-.25-4.44,1.25,1.25,0,0,0-1.42-1.08c-.64,0-1,.33-1.2,1.08A14.86,14.86,0,0,0,127.64,15.23Z"/><path class="cls-2" d="M113.85,11a4.71,4.71,0,0,1,2.9-2.27,3.36,3.36,0,0,1,4.17,2.16,10.32,10.32,0,0,1,.61,3.34,54,54,0,0,1-.1,9,9.38,9.38,0,0,1-.64,2.54A3.37,3.37,0,0,1,118,28.13,4.17,4.17,0,0,1,114,26.51c-.09-.12-.17-.25-.29-.42-.06.16-.12.27-.15.39-.36,1.39-.36,1.39-1.77,1.39-.5,0-1,0-1.51,0s-.58-.13-.57-.58q0-6,0-12c0-4.48,0-8.95,0-13.42,0-.61.18-.72.73-.69a22,22,0,0,0,2.69,0c.64,0,.73.21.73.77C113.84,4.89,113.85,7.87,113.85,11Zm3.51,7.63c0-1.05,0-2.1,0-3.15a9.56,9.56,0,0,0-.4-2.91,1.24,1.24,0,0,0-2-.67,2.15,2.15,0,0,0-1.08,1.89c0,3.24,0,6.48,0,9.72a1.53,1.53,0,0,0,2.93.58,4.37,4.37,0,0,0,.26-.94A28.43,28.43,0,0,0,117.36,18.67Z"/><path class="cls-2" d="M81.74,25.5a4.7,4.7,0,0,1-3,2.59A3.49,3.49,0,0,1,74.08,25a15.27,15.27,0,0,1-.13-2c0-4.4,0-8.81,0-13.21,0-.5.09-.68.63-.65,1,0,2.06,0,3.09,0,.47,0,.57.14.57.59,0,4.27,0,8.54,0,12.82a6.43,6.43,0,0,0,.19,2,1,1,0,0,0,1,.75,1.71,1.71,0,0,0,1.76-1.76c0-4.58,0-9.16,0-13.74,0-.5.13-.63.61-.61,1.07,0,2.15,0,3.22,0,.39,0,.48.12.48.49q0,8.94,0,17.88c0,.32,0,.48-.42.47-.85,0-1.71,0-2.56,0-.33,0-.4-.12-.44-.4C82,26.9,81.87,26.3,81.74,25.5Z"/><path class="cls-2" d="M103.49,25.51A4.75,4.75,0,0,1,100.77,28c-2.64.84-4.71-.55-5-3.3-.12-1.23-.1-2.46-.1-3.68,0-3.77,0-7.55,0-11.32,0-.52.13-.66.65-.64q1.55.06,3.09,0c.46,0,.58.12.58.58,0,4.32,0,8.64,0,13a5.69,5.69,0,0,0,.14,1.69,1,1,0,0,0,1.25.86,1.65,1.65,0,0,0,1.56-1.68c0-4.58,0-9.17,0-13.75,0-.49.08-.69.63-.66,1,0,2.11,0,3.16,0,.38,0,.52.07.52.5q0,8.91,0,17.82c0,.4-.09.54-.5.52-.81,0-1.63,0-2.44,0-.31,0-.46,0-.49-.42C103.75,26.88,103.61,26.29,103.49,25.51Z"/><path class="cls-2" d="M71.79,18.94a26.73,26.73,0,0,1-.33,4.74c-.63,3.15-2.33,4.55-5.54,4.52a9.84,9.84,0,0,1-2-.22,4.57,4.57,0,0,1-3.5-3.9,12.8,12.8,0,0,1-.32-2.54,36.68,36.68,0,0,1,.29-8.31c.71-3.62,3.08-4.8,6.49-4.48C69.52,9,71,10.37,71.57,14A32.73,32.73,0,0,1,71.79,18.94Zm-7.44-.51c0,1.2,0,2.41,0,3.61a7,7,0,0,0,.38,2.39,1.23,1.23,0,0,0,1.15.83,1.2,1.2,0,0,0,1.18-.78,4.09,4.09,0,0,0,.31-1.34c.22-2.82.1-5.64.08-8.46a5.84,5.84,0,0,0-.38-2.26,1.25,1.25,0,0,0-2.33,0,4.9,4.9,0,0,0-.3,1.27A46.47,46.47,0,0,0,64.35,18.43Z"/><path class="cls-2" d="M47.24,2.11c1.32,0,2.62,0,3.91,0,.37,0,.36.26.4.47.83,4.07,1.82,8.1,2.52,12.19,0,0,0,.08.06.15.43-2,.84-4.05,1.27-6.06s1-4.22,1.42-6.33c0-.27.1-.42.43-.42,1.27,0,2.54,0,3.88,0-.41,1.48-.81,2.9-1.21,4.33q-1.77,6.33-3.56,12.67a3.47,3.47,0,0,0-.09.91c0,2.39,0,4.78,0,7.17,0,.52-.1.73-.67.7-1-.05-1.93,0-2.89,0-.51,0-.68-.11-.66-.64,0-1.4-.06-2.81,0-4.21a19.7,19.7,0,0,0-.93-6.77c-1.33-4.59-2.56-9.2-3.84-13.81C47.28,2.36,47.27,2.26,47.24,2.11Z"/><path class="cls-2" d="M92.77,16.72c0,3.51,0,7,0,10.52,0,.53-.14.67-.65.64-.94,0-1.89,0-2.83,0-.54,0-.69-.14-.69-.69,0-5.88,0-11.75,0-17.63,0-1.16,0-2.32,0-3.48,0-.42-.08-.58-.54-.56-1,0-2.1,0-3.15,0-.38,0-.55-.06-.53-.5,0-.8,0-1.62,0-2.43,0-.38.07-.52.5-.52q5.79,0,11.58,0c.41,0,.51.11.5.51,0,.83,0,1.67,0,2.5,0,.35-.11.44-.44.44-1,0-2,0-3,0-.57,0-.77.1-.77.73C92.79,9.75,92.77,13.23,92.77,16.72Z"/><path class="cls-3" d="M17.25,8.61,28.37,15,17.25,21.39Z"/><path class="cls-4" d="M158.89,27.8h1.71L153.73,8.06h-2.58L144.27,27.8H146l1.83-5.19H157ZM152.42,9.07l4.07,12h-8.12Zm11.21,15c0,2.61,1.27,4,4.08,4a8.3,8.3,0,0,0,4.87-1.66l.08,1.37h1.58V7.23l-1.72.24v6.07a22,22,0,0,0-4.45-.46c-3.26,0-4.44,1.8-4.44,4.44Zm8.89.62a7.42,7.42,0,0,1-4.68,1.84c-2,0-2.5-.79-2.5-2.46V17.52c0-2,.78-2.9,2.67-2.9a22.92,22.92,0,0,1,4.51.49Zm15.35-.56c0-2.69-.24-3.38-4.48-4.44-2.66-.69-2.79-.89-2.79-2.88,0-1.56.36-2.21,2.88-2.21a22.67,22.67,0,0,1,4,.41l.18-1.46a16.63,16.63,0,0,0-4.1-.49c-3.55,0-4.7,1.29-4.7,3.69,0,2.64.3,3.53,3.91,4.39,3.29.77,3.34,1,3.34,3.06,0,1.83-.53,2.33-3.2,2.33a14.78,14.78,0,0,1-3.82-.58l-.29,1.38a12.15,12.15,0,0,0,4.23.74C186.92,28.09,187.87,26.76,187.87,24.15Z"/></g></g></svg>