<svg xmlns="http://www.w3.org/2000/svg" xmlns:xlink="http://www.w3.org/1999/xlink" viewBox="0 0 55 55"><defs><style>.cls-1{fill:url(#linear-gradient);}.cls-2{fill:url(#linear-gradient-2);}.cls-3{fill:#fff;}.cls-4{fill:#fc9965;}.cls-5{fill:#ff2d55;}.cls-6{fill:url(#linear-gradient-3);}.cls-7{fill:#ffbc5b;}.cls-8{fill:#ffc95b;}</style><linearGradient id="linear-gradient" x1="-689.65" y1="-1310.25" x2="-689.75" y2="-1310.35" gradientTransform="matrix(400, 0, 0, -400, 275908.5, -524093.23)" gradientUnits="userSpaceOnUse"><stop offset="0" stop-color="#ff2d55"/><stop offset="1" stop-color="#ffbc5b"/></linearGradient><linearGradient id="linear-gradient-2" x1="-686.88" y1="-1321.58" x2="-686.88" y2="-1321.72" gradientTransform="matrix(125, 0, 0, -150, 85887.7, -198219.32)" gradientUnits="userSpaceOnUse"><stop offset="0" stop-color="#a524b3"/><stop offset="1" stop-color="#ff2d55"/></linearGradient><linearGradient id="linear-gradient-3" x1="-686.41" y1="-1327.72" x2="-686.41" y2="-1327.86" gradientTransform="matrix(91.7, 0, 0, -110, 62987.35, -146020.3)" xlink:href="#linear-gradient-2"/></defs><g id="Capa_2" data-name="Capa 2"><g id="Layer_1" data-name="Layer 1"><circle class="cls-1" cx="27.5" cy="27.5" r="27.5"/><path class="cls-2" d="M19.48,17.88V38.5H36.67Z"/><path class="cls-3" d="M2.3,38.5H19.48V17.88Z"/><path class="cls-4" d="M5.5,44A28.1,28.1,0,0,0,11,49.5H44A28.1,28.1,0,0,0,49.5,44Z"/><path class="cls-5" d="M11,49.5a27.5,27.5,0,0,0,33,0Z"/><path class="cls-6" d="M36.89,28.88V44H49.5Z"/><path class="cls-7" d="M36.89,38.5H2.3A27.35,27.35,0,0,0,5.5,44H36.9V38.5Z"/><path class="cls-3" d="M24.3,44H36.89V28.88Z"/><circle class="cls-8" cx="36.89" cy="17.88" r="6.87"/><circle class="cls-8" cx="19.48" cy="10.31" r="3.44"/></g></g></svg>