<svg xmlns="http://www.w3.org/2000/svg" viewBox="0 0 55.25 51.12"><defs><style>.cls-1{fill:#e17726;stroke:#e17726;}.cls-1,.cls-10,.cls-2,.cls-3,.cls-4,.cls-5,.cls-6,.cls-7,.cls-8,.cls-9{stroke-linecap:round;stroke-linejoin:round;stroke-width:0.25px;}.cls-2{fill:#e27625;stroke:#e27625;}.cls-3{fill:#d5bfb2;stroke:#d5bfb2;}.cls-4{fill:#233447;stroke:#233447;}.cls-5{fill:#cc6228;stroke:#cc6228;}.cls-6{fill:#e27525;stroke:#e27525;}.cls-7{fill:#f5841f;stroke:#f5841f;}.cls-8{fill:#c0ac9d;stroke:#c0ac9d;}.cls-9{fill:#161616;stroke:#161616;}.cls-10{fill:#763e1a;stroke:#763e1a;}</style></defs><g id="Capa_2" data-name="Capa 2"><g id="Layer_1" data-name="Layer 1"><path class="cls-1" d="M52.4.12,30.92,16l4-9.37Z"/><path class="cls-2" d="M2.85.12,24.14,16.17l-3.8-9.52Z"/><path class="cls-2" d="M44.67,37,39,45.72l12.24,3.37L54.7,37.18Z"/><path class="cls-2" d="M.57,37.18,4.06,49.09l12.22-3.37L10.58,37Z"/><path class="cls-2" d="M15.62,22.23l-3.4,5.13,12.11.55-.4-13Z"/><path class="cls-2" d="M39.63,22.23l-8.43-7.5-.28,13.18L43,27.36Z"/><path class="cls-2" d="M16.28,45.72l7.33-3.54L17.3,37.26Z"/><path class="cls-2" d="M31.64,42.18,39,45.72l-1-8.46Z"/><path class="cls-3" d="M39,45.72l-7.31-3.54.6,4.75-.07,2Z"/><path class="cls-3" d="M16.28,45.72l6.8,3.22,0-2,.58-4.75Z"/><path class="cls-4" d="M23.2,34.13l-6.07-1.79,4.29-2Z"/><path class="cls-4" d="M32.05,34.13l1.78-3.76,4.31,2Z"/><path class="cls-5" d="M16.28,45.72,17.34,37l-6.76.19Z"/><path class="cls-5" d="M37.91,37l1,8.73,5.72-8.54Z"/><path class="cls-5" d="M43,27.36l-12.11.55,1.13,6.22,1.78-3.76,4.31,2Z"/><path class="cls-5" d="M17.13,32.34l4.29-2,1.78,3.76,1.13-6.22-12.11-.55Z"/><path class="cls-6" d="M12.22,27.36l5.08,9.9-.17-4.92Z"/><path class="cls-6" d="M38.14,32.34,38,37.26,43,27.36Z"/><path class="cls-6" d="M24.33,27.91,23.2,34.13l1.43,7.33L25,31.79Z"/><path class="cls-6" d="M30.92,27.91l-.6,3.86.3,9.69,1.43-7.33Z"/><path class="cls-7" d="M32.05,34.13l-1.43,7.33,1,.72L38,37.26l.19-4.92Z"/><path class="cls-7" d="M17.13,32.34l.17,4.92,6.31,4.92,1-.72L23.2,34.13Z"/><path class="cls-8" d="M32.17,48.94l.07-2-.56-.47H23.57l-.54.47,0,2-6.8-3.22,2.38,2L23.48,51h8.27l4.84-3.33,2.36-2Z"/><path class="cls-9" d="M31.64,42.18l-1-.72h-6l-1,.72L23,46.93l.54-.47h8.11l.56.47Z"/><path class="cls-10" d="M53.32,17.06l1.8-8.77L52.4.12,31.64,15.49l8,6.74,11.29,3.29,2.48-2.9-1.08-.79L54,20.26l-1.32-1,1.72-1.31Z"/><path class="cls-10" d="M.12,8.29,2,17.06l-1.17.87,1.75,1.31-1.32,1,1.72,1.57-1.08.79,2.48,2.9,11.29-3.29,8-6.74L2.85.12Z"/><path class="cls-7" d="M50.92,25.52,39.63,22.23,43,27.36,38,37.26l6.72-.08h10Z"/><path class="cls-7" d="M15.62,22.23,4.33,25.52.57,37.18h10l6.72.08-5.08-9.9Z"/><path class="cls-7" d="M30.92,27.91l.72-12.42,3.27-8.84H20.34l3.27,8.84.72,12.42.28,3.9,0,9.65h6l0-9.65Z"/></g></g></svg>