<svg xmlns="http://www.w3.org/2000/svg" viewBox="0 0 55 33.2"><defs><style>.cls-1{fill:#f2f2f2;fill-rule:evenodd;}</style></defs><g id="Capa_2" data-name="Capa 2"><g id="Layer_1" data-name="Layer 1"><path class="cls-1" d="M17,0c6.5,0,13,0,19.5,0A23,23,0,0,1,43,.74a16.46,16.46,0,0,1,1.24,31.31,20.93,20.93,0,0,1-7.49,1.15H17.81a19.46,19.46,0,0,1-8-1.55A16.49,16.49,0,0,1,13.43.4,23.36,23.36,0,0,1,17,0ZM13.44,12.14a5.37,5.37,0,0,0-1.6,7.21,5.74,5.74,0,0,0,4.45,2.72H38.83a5.87,5.87,0,0,0,3.47-1.61,5.24,5.24,0,0,0,1.53-3,5.38,5.38,0,0,0-1.72-4.91,6.47,6.47,0,0,0-4.39-1.51H17.44a6.86,6.86,0,0,0-4,1.08Z"/></g></g></svg>