<svg xmlns="http://www.w3.org/2000/svg" viewBox="0 0 54.48 55"><defs><style>.cls-1{fill:#633001;}.cls-2{fill:#fedc90;}.cls-3{fill:#d1884f;}</style></defs><g id="Capa_2" data-name="Capa 2"><g id="Layer_1" data-name="Layer 1"><path class="cls-1" d="M9.8,8.59A7.2,7.2,0,1,1,24.06,7.22v8.94c1,0,2.07-.18,3.1-.18a15.91,15.91,0,0,1,2.92.18V7.22A7.26,7.26,0,0,1,37.3,0a7.44,7.44,0,0,1,7.22,8.59L42.63,19.08c6.7,2.92,11.85,8.08,11.85,14.44v3.95c0,5.33-3.43,9.8-8.42,12.72-5,3.09-11.51,4.81-18.9,4.81S13.23,53.28,8.25,50.19C3.44,47.27,0,42.8,0,37.47V33.52C0,27.16,5,22,11.69,19.08ZM40.05,20.45,42.28,8.08a5.08,5.08,0,0,0-5-6,5,5,0,0,0-5,5V18.39a9.82,9.82,0,0,0-2.23-.17c-1,0-1.89-.17-2.92-.17a19,19,0,0,0-3.1.17c-.68,0-1.54.17-2.23.17V7.22a5,5,0,1,0-9.8,1l2.24,12.38c-7.22,2.75-12,7.56-12,13.06v4c0,8.42,11.18,15.3,24.93,15.3s24.92-6.88,24.92-15.3v-4C52.25,28,47.44,23.2,40.05,20.45Z"/><path class="cls-2" d="M52.25,37.47c0,8.42-11.17,15.3-24.92,15.3S2.41,45.89,2.41,37.47V33.52h50v3.95Z"/><path class="cls-3" d="M12,8.25a5,5,0,1,1,9.8-1V18.56a52.69,52.69,0,0,1,5.33-.34c1.72,0,3.43.17,5.15.34V7.22a5,5,0,0,1,5-5,5.17,5.17,0,0,1,5,6L40.05,20.63c7.22,2.75,12.2,7.56,12.2,13.06C52.25,42.11,41.08,49,27.33,49S2.41,42.11,2.41,33.69c0-5.5,4.81-10.31,12-13.06Z"/><path class="cls-1" d="M20.28,32.48c0,2.24-1.2,4.13-2.75,4.13s-2.75-1.89-2.75-4.13,1.2-4.12,2.75-4.12S20.28,30.25,20.28,32.48Z"/><path class="cls-1" d="M39.36,32.48c0,2.24-1.2,4.13-2.75,4.13s-2.75-1.89-2.75-4.13,1.2-4.12,2.75-4.12S39.36,30.25,39.36,32.48Z"/></g></g></svg>