<svg xmlns="http://www.w3.org/2000/svg" xmlns:xlink="http://www.w3.org/1999/xlink" viewBox="0 0 55 55"><defs><style>.cls-1{fill:url(#linear-gradient);}.cls-2{fill:url(#linear-gradient-2);}</style><linearGradient id="linear-gradient" x1="31" y1="-4342.06" x2="31" y2="-4397.06" gradientTransform="matrix(1, 0, 0, -1, -3.5, -4342.06)" gradientUnits="userSpaceOnUse"><stop offset="0" stop-color="#534bb1"/><stop offset="1" stop-color="#551bf9"/></linearGradient><linearGradient id="linear-gradient-2" x1="31.6" y1="-4352.01" x2="31.6" y2="-4388.31" gradientTransform="matrix(1, 0, 0, -1, -3.5, -4342.06)" gradientUnits="userSpaceOnUse"><stop offset="0" stop-color="#fff"/><stop offset="1" stop-color="#fff" stop-opacity="0.82"/></linearGradient></defs><g id="Capa_2" data-name="Capa 2"><g id="Layer_1" data-name="Layer 1"><circle class="cls-1" cx="27.5" cy="27.5" r="27.5"/><path class="cls-2" d="M47.21,27.85H42.35a18,18,0,0,0-35.9-.35c-.19,10,9.26,18.75,19.33,18.75h1.27c8.88,0,20.8-6.93,22.65-15.36a2.51,2.51,0,0,0-2-3A1.22,1.22,0,0,0,47.21,27.85Zm-30,.45a2.41,2.41,0,0,1-4.82,0V24.4a2.41,2.41,0,0,1,4.82,0Zm8.37,0a2.41,2.41,0,0,1-4.82,0V24.4a2.41,2.41,0,0,1,4.82,0Z"/></g></g></svg>