<svg xmlns="http://www.w3.org/2000/svg" xmlns:xlink="http://www.w3.org/1999/xlink" viewBox="0 0 55 43.1"><defs><style>.cls-1{fill:url(#linear-gradient);}.cls-2{fill:url(#linear-gradient-2);}.cls-3{fill:url(#linear-gradient-3);}</style><linearGradient id="linear-gradient" x1="49.91" y1="1280.82" x2="19.53" y2="1339" gradientTransform="translate(0 -1286)" gradientUnits="userSpaceOnUse"><stop offset="0" stop-color="#00ffa3"/><stop offset="1" stop-color="#dc1fff"/></linearGradient><linearGradient id="linear-gradient-2" x1="36.63" y1="1273.89" x2="6.25" y2="1332.07" xlink:href="#linear-gradient"/><linearGradient id="linear-gradient-3" x1="43.22" y1="1277.33" x2="12.85" y2="1335.51" xlink:href="#linear-gradient"/></defs><g id="Capa_2" data-name="Capa 2"><g id="Layer_1" data-name="Layer 1"><path class="cls-1" d="M8.94,32.9a1.79,1.79,0,0,1,1.27-.53H54.1a.9.9,0,0,1,.63,1.54l-8.67,8.67a1.78,1.78,0,0,1-1.27.52H.9a.89.89,0,0,1-.63-1.53Z"/><path class="cls-2" d="M8.94.53A1.8,1.8,0,0,1,10.21,0H54.1a.89.89,0,0,1,.63,1.53l-8.67,8.68a1.78,1.78,0,0,1-1.27.52H.9A.89.89,0,0,1,.27,9.2Z"/><path class="cls-3" d="M46.06,16.61a1.79,1.79,0,0,0-1.27-.53H.9a.9.9,0,0,0-.63,1.54l8.67,8.67a1.78,1.78,0,0,0,1.27.52H54.1a.89.89,0,0,0,.63-1.53Z"/></g></g></svg>