<svg xmlns="http://www.w3.org/2000/svg" xmlns:xlink="http://www.w3.org/1999/xlink" viewBox="0 0 55 51.56"><defs><style>.cls-1{fill:#fff;}.cls-2{fill:#0e3ca5;}.cls-3{fill:#5493f7;}.cls-4{mask:url(#mask);}</style><mask id="mask" x="0" y="17.19" width="17.19" height="34.37" maskUnits="userSpaceOnUse"><g id="b"><path id="a" class="cls-1" d="M0,17.19H17.19V51.56H0Z"/></g></mask></defs><g id="Capa_2" data-name="Capa 2"><g id="Layer_1" data-name="Layer 1"><path class="cls-2" d="M24.3,41.92c1.46,5.56,6.7,9.81,9.34,9.64A24.76,24.76,0,0,0,49.12,40.27c4.23-7.3,2.79-14.34-3-14.49-2.07.16-24.63,5.53-21.85,16.14M29.3,0A25.88,25.88,0,0,0,18.77,2.24a16.64,16.64,0,0,0-1.64.81q-.55.29-1.08.6l.08,0a11.92,11.92,0,0,0-2.74,2.6c-7.45,9.87,17.52,17,30.87,17.06,6.14,4.42,7.87-12.44,1.86-17.12A25.75,25.75,0,0,0,29.3,0Z"/><path class="cls-3" d="M19.92,5.78c-3.38,5-14.62,8.46-16.47,7.91v0l.23-.45a26.69,26.69,0,0,1,8-9.14,25.44,25.44,0,0,1,2.15-1.39,8,8,0,0,1,3.71-1c5,.09,2.4,4,2.37,4.06"/><g class="cls-4"><path class="cls-3" d="M17.09,43c.25,1.62,0,8.06-.35,8.61-.29,0-.9,0-2.65-.92A28,28,0,0,1,5.38,43,27.1,27.1,0,0,1,0,26.71a26.91,26.91,0,0,1,1.72-9.52h0c2,2.64,4.34,5,6.32,7.69s4.47,6.68,5,7.56c3.28,5.49,3.8,8.88,4.05,10.51"/></g><path class="cls-3" d="M55,27a27.08,27.08,0,0,1-1.89,10c-3.18,3.44-24.68-5-24.89-5.12-2.94-1.29-11.89-5.22-12.7-11.4C14.36,11.59,32.34,5.39,40.23,5.16c1,0,3.83,0,5.51,1.41A27.14,27.14,0,0,1,55,27M36.2,49c1.29-4.55,12.53-9.21,15-9.47.3,0,.43.19.3.44A27.84,27.84,0,0,1,40.45,51.06C38.11,52.19,35.53,51.37,36.2,49Z"/></g></g></svg>