<svg xmlns="http://www.w3.org/2000/svg" viewBox="0 0 55 55"><defs><style>.cls-1{fill:#26a17b;}.cls-2{fill:#fff;}</style></defs><g id="Capa_2" data-name="Capa 2"><g id="Layer_1" data-name="Layer 1"><circle class="cls-1" cx="27.5" cy="27.5" r="27.5"/><path class="cls-2" d="M30.43,30h0c-.19,0-1.17.07-3.35.07-1.75,0-3,0-3.41-.07h0C17,29.74,12,28.57,12,27.17s5-2.57,11.72-2.86v4.56c.44,0,1.7.11,3.44.11,2.08,0,3.13-.09,3.32-.11V24.31c6.7.3,11.7,1.47,11.7,2.87s-5,2.56-11.7,2.86m0-6.2V19.75h9.35V13.52H14.32v6.23h9.36v4.09c-7.6.35-13.32,1.85-13.32,3.66s5.72,3.3,13.32,3.66V44.25h6.76V31.16C38,30.81,43.73,29.3,43.73,27.5S38,24.19,30.44,23.84"/></g></g></svg>