<svg xmlns="http://www.w3.org/2000/svg" viewBox="0 0 47.65 55"><defs><style>.cls-1{fill:#fff;}.cls-2{fill:#3375bb;}</style></defs><g id="Capa_2" data-name="Capa 2"><g id="Layer_1" data-name="Layer 1"><g id="logo_solid_side" data-name="logo solid side"><g id="logo_solid_white" data-name="logo solid white"><path id="path0_fill" data-name="path0 fill" class="cls-1" d="M23.81,2.07c8.79,6.82,18.88,6.4,21.76,6.4-.63,38.75-5.43,33.59-21.76,44.45C7.48,42.06,2.71,47.22,2.08,8.47,4.93,8.47,15,8.89,23.81,2.07Z"/><path id="path1_stroke" data-name="path1 stroke" class="cls-2" d="M23.81,2.07,25.08.43a2.1,2.1,0,0,0-2.54,0Zm21.76,6.4,2.08,0a2.09,2.09,0,0,0-2-2.11h0ZM23.81,52.92l-1.15,1.73a2.05,2.05,0,0,0,2.3,0ZM2.08,8.47V6.39A2.08,2.08,0,0,0,0,8.47v0ZM22.54,3.72c9.42,7.29,20.2,6.82,23,6.82V6.39c-2.93,0-12.32.37-20.49-6Zm21,4.71a166.12,166.12,0,0,1-1.35,21.49c-.77,5-1.87,8-3.29,10.07s-3.25,3.47-5.92,5.07-6.1,3.36-10.28,6.13L25,54.65c4-2.65,7.3-4.34,10.12-6a22.11,22.11,0,0,0,7.22-6.3c1.9-2.82,3.14-6.48,4-11.77a170.68,170.68,0,0,0,1.39-22ZM25,51.19c-4.18-2.77-7.59-4.51-10.28-6.13S10.21,42.17,8.78,40,6.26,34.91,5.49,29.92A166.5,166.5,0,0,1,4.15,8.43L0,8.5A172.52,172.52,0,0,0,1.39,30.55c.81,5.29,2.05,9,4,11.76a21.89,21.89,0,0,0,7.21,6.31c2.82,1.69,6.13,3.38,10.11,6ZM2.08,10.54c2.8,0,13.58.47,23-6.82L22.53.43c-8.16,6.33-17.56,6-20.45,6Z"/></g></g></g></g></svg>