<svg xmlns="http://www.w3.org/2000/svg" viewBox="0 0 31.93 37.12"><defs><style>.cls-1{fill:#eb1a6b;}</style></defs><g id="Capa_2" data-name="Capa 2"><g id="katman_1" data-name="katman 1"><path class="cls-1" d="M15.1,17.64c.78,1.38-1,1.81-1.78,1.89-1.24.12-1.5-.6-1.25-1.5a1.62,1.62,0,0,1,.5-.83,1.57,1.57,0,0,1,.89-.39,1.71,1.71,0,0,1,.94.18A1.75,1.75,0,0,1,15.1,17.64Z"/><path class="cls-1" d="M20,15.09c-.9,7,11.3,5.51,11.07,11.05a5.81,5.81,0,0,0-1.82-8C26.05,16.14,21.93,17.21,20,15.09Z"/><path class="cls-1" d="M29.83,17.54h0a5.27,5.27,0,0,0-.37-.59,3,3,0,0,0-1.67-1.14,8,8,0,0,0-1.37-.21L25,15.51a12.72,12.72,0,0,1-2.91-.43c-.24-.07-.48-.14-.72-.23L21,14.71l-.36-.17a6.55,6.55,0,0,1-1.25-.91,18.21,18.21,0,0,1-1.91-2.25,26.61,26.61,0,0,0-1.77-2.2,8.29,8.29,0,0,0-2.16-1.7,7.54,7.54,0,0,0-2.7-.77,6.28,6.28,0,0,1,2.88.35,7.58,7.58,0,0,1,2.5,1.6,13.79,13.79,0,0,1,1.33,1.42,10.75,10.75,0,0,1,7.44,1l0,0a9.55,9.55,0,0,1,1.7,1.18l.24.22a11.73,11.73,0,0,1,1.13,1.21l0,0A7.11,7.11,0,0,1,29.83,17.54Z"/><path class="cls-1" d="M11,7.6a3.43,3.43,0,0,1,2.09,1A4.44,4.44,0,0,1,14,10.73a9.76,9.76,0,0,0,.44,1.69c.11.27.27.5.4.75a4.85,4.85,0,0,1,.39.61.17.17,0,0,1,0,.1.17.17,0,0,1,0,.1c-.28.3-1,0-1.29-.17a4.13,4.13,0,0,1-1.26-1A6.91,6.91,0,0,1,11,8.19,5.87,5.87,0,0,1,11,7.6Z"/><path class="cls-1" d="M24.06,21.58c-1.68,4.73,6,7.9,3.1,12.7a6.09,6.09,0,0,0,3.11-7.82C29.21,23.9,26.05,23,24.06,21.58Z"/><path class="cls-1" d="M14,27.76a6.67,6.67,0,0,1,1.49-.85,8.16,8.16,0,0,1,1.67-.48,17.21,17.21,0,0,0,3.2-.66A4,4,0,0,0,21.57,25a3.16,3.16,0,0,0,.8-1.21,3.73,3.73,0,0,0,.2-1.52,5.53,5.53,0,0,0-.36-1.61,3.72,3.72,0,0,1,.88,1.56,3.65,3.65,0,0,1,.06,1.8,3.6,3.6,0,0,1-.92,1.66,4.31,4.31,0,0,1-1.59,1,6.49,6.49,0,0,1-1.75.36c-.58.05-1.14.06-1.69.1A10.6,10.6,0,0,0,14,27.76Z"/><path class="cls-1" d="M24.73,36.07c-.17.14-.34.28-.52.41a4.83,4.83,0,0,1-.59.32,3.1,3.1,0,0,1-1.37.32,3.25,3.25,0,0,1-2.71-2.07c-.37-.74-.61-1.53-1-2.24a3.09,3.09,0,0,0-2.89-1.66A1.64,1.64,0,1,0,16,34.39a1.39,1.39,0,0,0,.33-.1.92.92,0,0,0,.3-.18,1.35,1.35,0,0,0,.4-.59,1.37,1.37,0,0,0,.06-.75,1.08,1.08,0,0,0-.43-.65,1.08,1.08,0,0,1,.56.61,1.67,1.67,0,0,1,.08.86,1.83,1.83,0,0,1-.39.82,1.31,1.31,0,0,1-.36.3,1.65,1.65,0,0,1-.42.21,2.14,2.14,0,0,1-.94.09A2.4,2.4,0,0,1,14,34.48a13.1,13.1,0,0,1-1.1-1.13,5.16,5.16,0,0,0-1.49-1.09,5.67,5.67,0,0,0-1.21-.38l-.63-.1c-.09,0-.56-.11-.63-.05a13.24,13.24,0,0,1,2.12-1.6,10.69,10.69,0,0,1,2.48-1.07,7.25,7.25,0,0,1,2.78-.21,5.65,5.65,0,0,1,1.4.36A4.38,4.38,0,0,1,19,30a4.08,4.08,0,0,1,.89,1.24,7.26,7.26,0,0,1,.43,1.37c.27,1.41.17,3.59,2,3.91l.29,0h.3c.21,0,.41,0,.62-.09A6.67,6.67,0,0,0,24.73,36.07Z"/><path class="cls-1" d="M12.43,14.68a2,2,0,0,1-.34.72,2.79,2.79,0,0,1-1.14.87,4.43,4.43,0,0,1-1.27.34l-.29,0a1.28,1.28,0,0,0-1.21,1,2.93,2.93,0,0,0-.07.41c0,.36-.06.73-.09,1.17a7.26,7.26,0,0,1-.65,2.2,4.76,4.76,0,0,0-.81,2.72,2.63,2.63,0,0,0,.89,1.63c.84.87,2.73,1.25,2.31,3.39-.26,1.27-2.36,2.61-5.31,3.07.29,0-.38-1.18-.42-1.25a13,13,0,0,1-.92-1.51A5.82,5.82,0,0,1,2.59,26,7.34,7.34,0,0,1,4.44,23a9,9,0,0,0,2-4c0-.35.08-.78.16-1.21a4.39,4.39,0,0,1,.44-1.37,2.52,2.52,0,0,1,.58-.75.75.75,0,0,0,.14-.92L3.06,6.24l6.77,8.39a.91.91,0,0,0,.28.23,1.06,1.06,0,0,0,.36.09.94.94,0,0,0,.36-.08.86.86,0,0,0,.29-.21.54.54,0,0,0,.14-.36.59.59,0,0,0-.12-.37c-.44-.57-.91-1.15-1.36-1.71L8.08,10.1,4.66,5.87,0,0,5.1,5.49l3.64,4,1.81,2c.6.68,1.2,1.34,1.81,2.06l.09.12,0,.18A2.14,2.14,0,0,1,12.43,14.68Z"/></g></g></svg>