<svg xmlns="http://www.w3.org/2000/svg" viewBox="0 0 55 55"><defs><style>.cls-1{fill:#f2f2f2;}</style></defs><g id="Capa_2" data-name="Capa 2"><g id="Layer_1" data-name="Layer 1"><path id="logosvg.com" class="cls-1" d="M45.58,9.42A25.57,25.57,0,1,1,1.94,27.5,25.57,25.57,0,0,1,45.58,9.42ZM45,31.74c-2.88,3-4.7,3.73-5.78,3.7a1.58,1.58,0,0,1-1.34-.57c0-.25-.14-4-.17-7.8s0-7.83.2-7.83A55.24,55.24,0,0,1,42.53,13h0a19.05,19.05,0,0,0-10.22,5.58,5.17,5.17,0,0,0-2.9-.68H29a4.47,4.47,0,0,1,2,3.5V34.59s-2.16,1.93-3.87,1.93a2.25,2.25,0,0,1-1.88-1,1.64,1.64,0,0,1-.28-.57V18.7a2.5,2.5,0,0,1-.88.29,1.11,1.11,0,0,1-1-.71,4.24,4.24,0,0,1-.34-1.88c0-3,3.42-5,3.42-5h0c-4.36,1.16-8.37,3.38-13.75,9.48S8,32.05,8,32.05H8a26,26,0,0,1,5-7.11c1.68-1.74,2.93-2.31,3.79-2.31A1.31,1.31,0,0,1,18.19,24V36.35a1.32,1.32,0,0,1-1.51,1.48,3.54,3.54,0,0,1-1.17-.22h0c3.64,5.26,12.41,6,12.41,6h0l3.84-4.07.09.09,3.53,3h0c5.43-3.19,8.48-8.71,9.31-10.34C44.89,31.91,45,31.74,45,31.74Zm2-23.68A27.49,27.49,0,1,1,8.06,46.94,27.49,27.49,0,1,1,46.94,8.06ZM54.23,27.5A26.73,26.73,0,1,0,27.5,54.23,26.73,26.73,0,0,0,54.23,27.5Z"/></g></g></svg>